<mxfile host="app.diagrams.net" modified="2024-06-06T16:15:00.271Z" agent="Mozilla/5.0 (Windows NT 10.0; Win64; x64) AppleWebKit/537.36 (KHTML, like Gecko) Chrome/125.0.0.0 Safari/537.36" etag="QnZrZWlfTz70NaRXtxe9" version="24.4.15" type="google">
  <diagram id="Tn4xBR2LgAawVbLnZKPs" name="Page-2">
    <mxGraphModel grid="1" page="1" gridSize="10" guides="1" tooltips="1" connect="1" arrows="1" fold="1" pageScale="1" pageWidth="1654" pageHeight="2336" math="0" shadow="0">
      <root>
        <mxCell id="0" />
        <mxCell id="1" parent="0" />
        <mxCell id="pcp5GQLYtGhU9Is82J_Z-18" style="edgeStyle=orthogonalEdgeStyle;rounded=0;orthogonalLoop=1;jettySize=auto;html=1;dashed=1;endArrow=open;endFill=0;exitX=1.01;exitY=0.742;exitDx=0;exitDy=0;exitPerimeter=0;" edge="1" parent="1" source="S0c0oYzsWsoxoMVVKnZR-6" target="cNZdW6esm4BBX129etsO-12">
          <mxGeometry relative="1" as="geometry" />
        </mxCell>
        <mxCell id="cek7nsQ2RfXW3LOatkp3-78" value="&amp;lt;&amp;lt;creates&amp;gt;&amp;gt;" style="edgeLabel;html=1;align=center;verticalAlign=middle;resizable=0;points=[];" connectable="0" vertex="1" parent="pcp5GQLYtGhU9Is82J_Z-18">
          <mxGeometry x="-0.4226" y="-2" relative="1" as="geometry">
            <mxPoint as="offset" />
          </mxGeometry>
        </mxCell>
        <mxCell id="pcp5GQLYtGhU9Is82J_Z-19" style="edgeStyle=orthogonalEdgeStyle;rounded=0;orthogonalLoop=1;jettySize=auto;html=1;entryX=0;entryY=0.5;entryDx=0;entryDy=0;dashed=1;endArrow=open;endFill=0;exitX=1.006;exitY=0.925;exitDx=0;exitDy=0;exitPerimeter=0;" edge="1" parent="1" target="cNZdW6esm4BBX129etsO-13">
          <mxGeometry relative="1" as="geometry">
            <mxPoint x="933.8119999999999" y="1814.0500000000002" as="sourcePoint" />
          </mxGeometry>
        </mxCell>
        <mxCell id="cek7nsQ2RfXW3LOatkp3-79" value="&amp;lt;&amp;lt;creates&amp;gt;&amp;gt;" style="edgeLabel;html=1;align=center;verticalAlign=middle;resizable=0;points=[];" connectable="0" vertex="1" parent="pcp5GQLYtGhU9Is82J_Z-19">
          <mxGeometry x="-0.5656" relative="1" as="geometry">
            <mxPoint as="offset" />
          </mxGeometry>
        </mxCell>
        <mxCell id="pcp5GQLYtGhU9Is82J_Z-20" style="edgeStyle=orthogonalEdgeStyle;rounded=0;orthogonalLoop=1;jettySize=auto;html=1;dashed=1;endArrow=open;endFill=0;" edge="1" parent="1" source="3YPCHv7cXx526DVpAFdT-9" target="cNZdW6esm4BBX129etsO-20">
          <mxGeometry relative="1" as="geometry">
            <mxPoint x="931.9999999999998" y="1901" as="sourcePoint" />
            <Array as="points">
              <mxPoint x="1066" y="1860" />
              <mxPoint x="1066" y="1907" />
            </Array>
          </mxGeometry>
        </mxCell>
        <mxCell id="cek7nsQ2RfXW3LOatkp3-80" value="&amp;lt;&amp;lt;creates&amp;gt;&amp;gt;" style="edgeLabel;html=1;align=center;verticalAlign=middle;resizable=0;points=[];" connectable="0" vertex="1" parent="pcp5GQLYtGhU9Is82J_Z-20">
          <mxGeometry x="-0.6252" y="-1" relative="1" as="geometry">
            <mxPoint as="offset" />
          </mxGeometry>
        </mxCell>
        <mxCell id="cek7nsQ2RfXW3LOatkp3-45" style="edgeStyle=orthogonalEdgeStyle;rounded=0;orthogonalLoop=1;jettySize=auto;html=1;entryX=0.999;entryY=0.77;entryDx=0;entryDy=0;dashed=1;endArrow=open;endFill=0;entryPerimeter=0;" edge="1" parent="1" source="S0c0oYzsWsoxoMVVKnZR-5" target="cNZdW6esm4BBX129etsO-24">
          <mxGeometry relative="1" as="geometry">
            <Array as="points">
              <mxPoint x="510" y="1796" />
              <mxPoint x="510" y="1816" />
            </Array>
          </mxGeometry>
        </mxCell>
        <mxCell id="cek7nsQ2RfXW3LOatkp3-84" value="&amp;lt;&amp;lt;creates&amp;gt;&amp;gt;" style="edgeLabel;html=1;align=center;verticalAlign=middle;resizable=0;points=[];" connectable="0" vertex="1" parent="cek7nsQ2RfXW3LOatkp3-45">
          <mxGeometry x="0.0531" y="-1" relative="1" as="geometry">
            <mxPoint x="14" y="1" as="offset" />
          </mxGeometry>
        </mxCell>
        <mxCell id="S0c0oYzsWsoxoMVVKnZR-5" value="Game" style="swimlane;fontStyle=1;align=center;verticalAlign=top;childLayout=stackLayout;horizontal=1;startSize=26;horizontalStack=0;resizeParent=1;resizeParentMax=0;resizeLast=0;collapsible=1;marginBottom=0;whiteSpace=wrap;html=1;fillColor=#fff2cc;strokeColor=#d6b656;" vertex="1" parent="1">
          <mxGeometry x="630" y="1636" width="302" height="290" as="geometry" />
        </mxCell>
        <mxCell id="S0c0oYzsWsoxoMVVKnZR-6" value="- players: ArrayList&amp;lt;String&amp;gt;&lt;div&gt;- chitCardController: ChitCardController&lt;/div&gt;&lt;div&gt;- volcanoCardController: VolcanoCardController&lt;/div&gt;&lt;div&gt;- caveController: CaveController&lt;/div&gt;&lt;div&gt;- tokenController: TokenController&lt;/div&gt;&lt;div&gt;- currentToken: Token&lt;/div&gt;&lt;div&gt;- timer: Timer&lt;/div&gt;" style="text;align=left;verticalAlign=top;spacingLeft=4;spacingRight=4;overflow=hidden;rotatable=0;points=[[0,0.5],[1,0.5]];portConstraint=eastwest;whiteSpace=wrap;html=1;fillColor=#fff2cc;strokeColor=#d6b656;" vertex="1" parent="S0c0oYzsWsoxoMVVKnZR-5">
          <mxGeometry y="26" width="302" height="114" as="geometry" />
        </mxCell>
        <mxCell id="3YPCHv7cXx526DVpAFdT-9" value="+ run(): void&lt;div&gt;+ processTokenTurn(): void&lt;/div&gt;&lt;div&gt;+ initialisingBackground(): void&lt;/div&gt;&lt;div&gt;+ getPlayers(): ArrayList&amp;lt;String&amp;gt;&lt;/div&gt;&lt;div&gt;+ askIfContinueTheTurn(): void&lt;/div&gt;&lt;div&gt;+ passNextToken(): void&lt;/div&gt;&lt;div&gt;+ finish(): void&lt;/div&gt;&lt;div&gt;+ addButton(): void&lt;/div&gt;&lt;div&gt;+ screenTimeLimit(): void&lt;/div&gt;&lt;div&gt;+ refreshGame(): void&lt;/div&gt;&lt;div&gt;&lt;br&gt;&lt;div&gt;&lt;br&gt;&lt;/div&gt;&lt;/div&gt;" style="text;align=left;verticalAlign=top;spacingLeft=4;spacingRight=4;overflow=hidden;rotatable=0;points=[[0,0.5],[1,0.5]];portConstraint=eastwest;whiteSpace=wrap;html=1;fillColor=#fff2cc;strokeColor=#d6b656;" vertex="1" parent="S0c0oYzsWsoxoMVVKnZR-5">
          <mxGeometry y="140" width="302" height="150" as="geometry" />
        </mxCell>
        <mxCell id="S0c0oYzsWsoxoMVVKnZR-13" value="&lt;span style=&quot;font-weight: 400;&quot;&gt;Bat&lt;/span&gt;" style="swimlane;fontStyle=1;align=center;verticalAlign=top;childLayout=stackLayout;horizontal=1;startSize=26;horizontalStack=0;resizeParent=1;resizeParentMax=0;resizeLast=0;collapsible=1;marginBottom=0;whiteSpace=wrap;html=1;fillColor=#fff2cc;strokeColor=#d6b656;" vertex="1" parent="1">
          <mxGeometry x="180" y="332" width="150" height="132" as="geometry" />
        </mxCell>
        <mxCell id="S0c0oYzsWsoxoMVVKnZR-14" value="- name: String&lt;div&gt;- maxVal: int&lt;/div&gt;" style="text;align=left;verticalAlign=top;spacingLeft=4;spacingRight=4;overflow=hidden;rotatable=0;points=[[0,0.5],[1,0.5]];portConstraint=eastwest;whiteSpace=wrap;html=1;fillColor=#fff2cc;strokeColor=#d6b656;" vertex="1" parent="S0c0oYzsWsoxoMVVKnZR-13">
          <mxGeometry y="26" width="150" height="44" as="geometry" />
        </mxCell>
        <mxCell id="S0c0oYzsWsoxoMVVKnZR-16" value="&lt;p style=&quot;forced-color-adjust: none; color: rgb(0, 0, 0); font-family: Helvetica; font-size: 12px; font-style: normal; font-variant-ligatures: normal; font-variant-caps: normal; font-weight: 400; letter-spacing: normal; orphans: 2; text-align: left; text-indent: 0px; text-transform: none; widows: 2; word-spacing: 0px; -webkit-text-stroke-width: 0px; white-space: normal; background-color: rgb(251, 251, 251); text-decoration-thickness: initial; text-decoration-style: initial; text-decoration-color: initial; margin: 0px 0px 0px 4px;&quot;&gt;&lt;span style=&quot;forced-color-adjust: none; background-color: initial;&quot;&gt;+ getMaxVal(): int&lt;/span&gt;&lt;br style=&quot;forced-color-adjust: none;&quot;&gt;&lt;/p&gt;&lt;p style=&quot;forced-color-adjust: none; color: rgb(0, 0, 0); font-family: Helvetica; font-size: 12px; font-style: normal; font-variant-ligatures: normal; font-variant-caps: normal; font-weight: 400; letter-spacing: normal; orphans: 2; text-align: left; text-indent: 0px; text-transform: none; widows: 2; word-spacing: 0px; -webkit-text-stroke-width: 0px; white-space: normal; background-color: rgb(251, 251, 251); text-decoration-thickness: initial; text-decoration-style: initial; text-decoration-color: initial; margin: 0px 0px 0px 4px;&quot;&gt;+ getName(): String&lt;/p&gt;&lt;p style=&quot;forced-color-adjust: none; color: rgb(0, 0, 0); font-family: Helvetica; font-size: 12px; font-style: normal; font-variant-ligatures: normal; font-variant-caps: normal; font-weight: 400; letter-spacing: normal; orphans: 2; text-align: left; text-indent: 0px; text-transform: none; widows: 2; word-spacing: 0px; -webkit-text-stroke-width: 0px; white-space: normal; background-color: rgb(251, 251, 251); text-decoration-thickness: initial; text-decoration-style: initial; text-decoration-color: initial; margin: 0px 0px 0px 4px;&quot;&gt;+ isSpecial(): boolean&lt;br&gt;&lt;/p&gt;&lt;div&gt;&lt;br/&gt;&lt;/div&gt;" style="text;align=left;verticalAlign=top;spacingLeft=4;spacingRight=4;overflow=hidden;rotatable=0;points=[[0,0.5],[1,0.5]];portConstraint=eastwest;whiteSpace=wrap;html=1;fillColor=#fff2cc;strokeColor=#d6b656;" vertex="1" parent="S0c0oYzsWsoxoMVVKnZR-13">
          <mxGeometry y="70" width="150" height="62" as="geometry" />
        </mxCell>
        <mxCell id="cek7nsQ2RfXW3LOatkp3-12" style="edgeStyle=orthogonalEdgeStyle;rounded=0;orthogonalLoop=1;jettySize=auto;html=1;exitX=0.5;exitY=0;exitDx=0;exitDy=0;entryX=0.5;entryY=1;entryDx=0;entryDy=0;dashed=1;endArrow=block;endFill=0;" edge="1" parent="1" source="S0c0oYzsWsoxoMVVKnZR-46" target="cek7nsQ2RfXW3LOatkp3-133">
          <mxGeometry relative="1" as="geometry">
            <mxPoint x="1155" y="642" as="targetPoint" />
          </mxGeometry>
        </mxCell>
        <mxCell id="cek7nsQ2RfXW3LOatkp3-28" style="edgeStyle=orthogonalEdgeStyle;rounded=0;orthogonalLoop=1;jettySize=auto;html=1;strokeColor=#000000;entryX=1.008;entryY=0.399;entryDx=0;entryDy=0;entryPerimeter=0;" edge="1" parent="1" source="S0c0oYzsWsoxoMVVKnZR-46" target="cek7nsQ2RfXW3LOatkp3-119">
          <mxGeometry relative="1" as="geometry">
            <mxPoint x="570" y="50" as="targetPoint" />
            <Array as="points">
              <mxPoint x="1530" y="862" />
              <mxPoint x="1530" y="42" />
              <mxPoint x="690" y="42" />
              <mxPoint x="690" y="122" />
            </Array>
          </mxGeometry>
        </mxCell>
        <mxCell id="S0c0oYzsWsoxoMVVKnZR-46" value="&lt;span style=&quot;font-weight: 400;&quot;&gt;Cave&lt;/span&gt;" style="swimlane;fontStyle=1;align=center;verticalAlign=top;childLayout=stackLayout;horizontal=1;startSize=26;horizontalStack=0;resizeParent=1;resizeParentMax=0;resizeLast=0;collapsible=1;marginBottom=0;whiteSpace=wrap;html=1;" vertex="1" parent="1">
          <mxGeometry x="1203" y="722" width="244" height="272" as="geometry" />
        </mxCell>
        <mxCell id="S0c0oYzsWsoxoMVVKnZR-47" value="- animal: Animal&lt;div&gt;- position: int&lt;/div&gt;&lt;div&gt;- caveImage: Image&lt;/div&gt;&lt;div&gt;- caveSize: int&lt;br&gt;&lt;/div&gt;" style="text;align=left;verticalAlign=top;spacingLeft=4;spacingRight=4;overflow=hidden;rotatable=0;points=[[0,0.5],[1,0.5]];portConstraint=eastwest;whiteSpace=wrap;html=1;strokeColor=#000000;" vertex="1" parent="S0c0oYzsWsoxoMVVKnZR-46">
          <mxGeometry y="26" width="244" height="74" as="geometry" />
        </mxCell>
        <mxCell id="S0c0oYzsWsoxoMVVKnZR-49" value="&lt;div&gt;+ setAnimal(Animal): void&lt;/div&gt;&lt;div&gt;+ setPosition(int): void&lt;/div&gt;&lt;div&gt;+ setCaveSize(): void&lt;/div&gt;&lt;div&gt;+ addToken(Token): void&lt;/div&gt;&lt;div&gt;+ removeToken(): void&lt;/div&gt;+ getAnimal(): Animal&lt;div&gt;+ getPosition(): int&lt;/div&gt;&lt;div&gt;+ getCaveSize(): int&lt;/div&gt;&lt;div&gt;+ getImage(): ImageIcon&lt;/div&gt;&lt;div&gt;&lt;div&gt;+ isOccupied(): boolean&lt;br&gt;&lt;/div&gt;&lt;/div&gt;" style="text;align=left;verticalAlign=top;spacingLeft=4;spacingRight=4;overflow=hidden;rotatable=0;points=[[0,0.5],[1,0.5]];portConstraint=eastwest;whiteSpace=wrap;html=1;" vertex="1" parent="S0c0oYzsWsoxoMVVKnZR-46">
          <mxGeometry y="100" width="244" height="172" as="geometry" />
        </mxCell>
        <mxCell id="S0c0oYzsWsoxoMVVKnZR-74" value="&lt;span style=&quot;font-weight: 400;&quot;&gt;Token&lt;/span&gt;" style="swimlane;fontStyle=1;align=center;verticalAlign=top;childLayout=stackLayout;horizontal=1;startSize=26;horizontalStack=0;resizeParent=1;resizeParentMax=0;resizeLast=0;collapsible=1;marginBottom=0;whiteSpace=wrap;html=1;" vertex="1" parent="1">
          <mxGeometry x="74" y="753" width="246" height="420" as="geometry" />
        </mxCell>
        <mxCell id="S0c0oYzsWsoxoMVVKnZR-75" value="- int: tokenPosition&lt;div&gt;- int: tokenNumber&lt;/div&gt;&lt;div&gt;- int: tokenSize&lt;/div&gt;&lt;div&gt;- int numberBelowMinSquare&lt;br&gt;&lt;div&gt;- Path: path&lt;/div&gt;&lt;div&gt;- Image: tokenImage&lt;/div&gt;&lt;div&gt;- Move: move&lt;/div&gt;&lt;div&gt;- ArrayList&amp;lt;Path&amp;gt; additionalPath&lt;/div&gt;&lt;/div&gt;" style="text;align=left;verticalAlign=top;spacingLeft=4;spacingRight=4;overflow=hidden;rotatable=0;points=[[0,0.5],[1,0.5]];portConstraint=eastwest;whiteSpace=wrap;html=1;strokeColor=#000000;" vertex="1" parent="S0c0oYzsWsoxoMVVKnZR-74">
          <mxGeometry y="26" width="246" height="134" as="geometry" />
        </mxCell>
        <mxCell id="S0c0oYzsWsoxoMVVKnZR-77" value="+ setTokenPosition(int): void&lt;div&gt;+ setCurrentSquare(Path): void&lt;/div&gt;&lt;div&gt;+ setAnimal(Animal): void&lt;/div&gt;&lt;div&gt;+ setTokenNumber(): void&lt;/div&gt;&lt;div&gt;+ setTokenSize(): void&lt;/div&gt;&lt;div&gt;+ setAdditionalPath(): void&lt;/div&gt;&lt;div&gt;+ setMove(Move): void&lt;/div&gt;&lt;div&gt;+ increaseNumberBelowMinSquare(): void&lt;/div&gt;&lt;div&gt;+ getTokenPosition(): int&lt;/div&gt;&lt;div&gt;+ getCurrentSquare(): Path&lt;/div&gt;&lt;div&gt;+ getAnimal(): Animal&lt;/div&gt;&lt;div&gt;+ getTokenNumber(): int&lt;/div&gt;&lt;div&gt;+ getTokenSize(): int&lt;/div&gt;&lt;div&gt;+ getAdditionalPath(): ArrayList&amp;lt;Path&amp;gt;&lt;/div&gt;&lt;div&gt;+ getNumberBelowMinSquare(): int&lt;/div&gt;&lt;div&gt;+ getImage(): ImageIcon&lt;/div&gt;&lt;div&gt;+ executeMove(int, Token): String&lt;/div&gt;&lt;div&gt;&lt;br&gt;&lt;/div&gt;&lt;div&gt;&lt;br&gt;&lt;/div&gt;&lt;div&gt;&lt;br&gt;&lt;/div&gt;" style="text;align=left;verticalAlign=top;spacingLeft=4;spacingRight=4;overflow=hidden;rotatable=0;points=[[0,0.5],[1,0.5]];portConstraint=eastwest;whiteSpace=wrap;html=1;" vertex="1" parent="S0c0oYzsWsoxoMVVKnZR-74">
          <mxGeometry y="160" width="246" height="260" as="geometry" />
        </mxCell>
        <mxCell id="cek7nsQ2RfXW3LOatkp3-11" style="edgeStyle=orthogonalEdgeStyle;rounded=0;orthogonalLoop=1;jettySize=auto;html=1;exitX=0.5;exitY=0;exitDx=0;exitDy=0;dashed=1;endArrow=block;endFill=0;entryX=0.5;entryY=1;entryDx=0;entryDy=0;" edge="1" parent="1" source="S0c0oYzsWsoxoMVVKnZR-94" target="cek7nsQ2RfXW3LOatkp3-133">
          <mxGeometry relative="1" as="geometry">
            <mxPoint x="1154.9565217391305" y="642" as="targetPoint" />
          </mxGeometry>
        </mxCell>
        <mxCell id="cek7nsQ2RfXW3LOatkp3-25" style="edgeStyle=orthogonalEdgeStyle;rounded=0;orthogonalLoop=1;jettySize=auto;html=1;strokeColor=#000000;entryX=0.5;entryY=0;entryDx=0;entryDy=0;" edge="1" parent="1" source="S0c0oYzsWsoxoMVVKnZR-97" target="cek7nsQ2RfXW3LOatkp3-119">
          <mxGeometry relative="1" as="geometry">
            <mxPoint x="490" y="40" as="targetPoint" />
            <Array as="points">
              <mxPoint x="1180" y="931" />
              <mxPoint x="1180" y="662" />
              <mxPoint x="1430" y="662" />
              <mxPoint x="1430" y="70" />
              <mxPoint x="680" y="70" />
              <mxPoint x="680" y="40" />
              <mxPoint x="551" y="40" />
            </Array>
          </mxGeometry>
        </mxCell>
        <mxCell id="S0c0oYzsWsoxoMVVKnZR-94" value="&lt;span style=&quot;font-weight: 400;&quot;&gt;VolcanoCard&lt;/span&gt;" style="swimlane;fontStyle=1;align=center;verticalAlign=top;childLayout=stackLayout;horizontal=1;startSize=26;horizontalStack=0;resizeParent=1;resizeParentMax=0;resizeLast=0;collapsible=1;marginBottom=0;whiteSpace=wrap;html=1;" vertex="1" parent="1">
          <mxGeometry x="910" y="722" width="246" height="292" as="geometry" />
        </mxCell>
        <mxCell id="S0c0oYzsWsoxoMVVKnZR-95" value="&lt;div&gt;- animal: Animal&lt;/div&gt;&lt;div&gt;- position: int&lt;/div&gt;&lt;div&gt;- volcanoCardImage: Image&lt;/div&gt;&lt;div&gt;- width: int&lt;/div&gt;&lt;div&gt;- height: int&lt;/div&gt;" style="text;align=left;verticalAlign=top;spacingLeft=4;spacingRight=4;overflow=hidden;rotatable=0;points=[[0,0.5],[1,0.5]];portConstraint=eastwest;whiteSpace=wrap;html=1;strokeColor=#000000;" vertex="1" parent="S0c0oYzsWsoxoMVVKnZR-94">
          <mxGeometry y="26" width="246" height="84" as="geometry" />
        </mxCell>
        <mxCell id="S0c0oYzsWsoxoMVVKnZR-97" value="&lt;div&gt;+ setAnimal(Animal): void&lt;/div&gt;&lt;div&gt;+ setPosition(int): void&lt;br&gt;+ setWidth(int): void&lt;/div&gt;&lt;div&gt;+ setHeight(int): void&lt;/div&gt;&lt;div&gt;+ addToken(Token): void&lt;/div&gt;&lt;div&gt;+ removeToken(): void&lt;/div&gt;+ getAnimal(): Animal&lt;div&gt;+ getPosition(): int&lt;/div&gt;&lt;div&gt;+ getWidth(): int&lt;/div&gt;&lt;div&gt;+ getHeight(): int&lt;/div&gt;&lt;div&gt;+ getImage(): ImageIcon&lt;/div&gt;&lt;div&gt;&lt;div&gt;&lt;div&gt;+ IsOccupied(): boolean&lt;/div&gt;&lt;/div&gt;&lt;/div&gt;&lt;div&gt;&lt;br&gt;&lt;/div&gt;" style="text;align=left;verticalAlign=top;spacingLeft=4;spacingRight=4;overflow=hidden;rotatable=0;points=[[0,0.5],[1,0.5]];portConstraint=eastwest;whiteSpace=wrap;html=1;" vertex="1" parent="S0c0oYzsWsoxoMVVKnZR-94">
          <mxGeometry y="110" width="246" height="182" as="geometry" />
        </mxCell>
        <mxCell id="Jl8eB7EL_saiuai-IM5H-50" value="&lt;i&gt;GameComponent&lt;/i&gt;" style="swimlane;fontStyle=1;align=center;verticalAlign=top;childLayout=stackLayout;horizontal=1;startSize=26;horizontalStack=0;resizeParent=1;resizeParentMax=0;resizeLast=0;collapsible=1;marginBottom=0;whiteSpace=wrap;html=1;" vertex="1" parent="1">
          <mxGeometry x="200" y="552" width="256" height="120" as="geometry" />
        </mxCell>
        <mxCell id="Jl8eB7EL_saiuai-IM5H-51" value="- animal: Animal" style="text;strokeColor=none;fillColor=none;align=left;verticalAlign=top;spacingLeft=4;spacingRight=4;overflow=hidden;rotatable=0;points=[[0,0.5],[1,0.5]];portConstraint=eastwest;whiteSpace=wrap;html=1;" vertex="1" parent="Jl8eB7EL_saiuai-IM5H-50">
          <mxGeometry y="26" width="256" height="26" as="geometry" />
        </mxCell>
        <mxCell id="Jl8eB7EL_saiuai-IM5H-52" value="" style="line;strokeWidth=1;fillColor=none;align=left;verticalAlign=middle;spacingTop=-1;spacingLeft=3;spacingRight=3;rotatable=0;labelPosition=right;points=[];portConstraint=eastwest;strokeColor=inherit;" vertex="1" parent="Jl8eB7EL_saiuai-IM5H-50">
          <mxGeometry y="52" width="256" height="8" as="geometry" />
        </mxCell>
        <mxCell id="Jl8eB7EL_saiuai-IM5H-53" value="+ setAnimal(Animal animal)&lt;div&gt;+ getAnimal()&lt;/div&gt;&lt;div&gt;+ getImage()&lt;/div&gt;" style="text;strokeColor=none;fillColor=none;align=left;verticalAlign=top;spacingLeft=4;spacingRight=4;overflow=hidden;rotatable=0;points=[[0,0.5],[1,0.5]];portConstraint=eastwest;whiteSpace=wrap;html=1;" vertex="1" parent="Jl8eB7EL_saiuai-IM5H-50">
          <mxGeometry y="60" width="256" height="60" as="geometry" />
        </mxCell>
        <mxCell id="Jl8eB7EL_saiuai-IM5H-56" value="" style="endArrow=block;endSize=16;endFill=0;html=1;rounded=0;" edge="1" parent="1" target="Jl8eB7EL_saiuai-IM5H-53">
          <mxGeometry width="160" relative="1" as="geometry">
            <mxPoint x="210" y="752" as="sourcePoint" />
            <mxPoint x="340" y="675" as="targetPoint" />
            <Array as="points">
              <mxPoint x="210" y="705" />
              <mxPoint x="328" y="705" />
            </Array>
          </mxGeometry>
        </mxCell>
        <mxCell id="LoxRRY5J0-bgbwbOWokh-1" value="" style="endArrow=block;dashed=1;endFill=0;endSize=12;html=1;rounded=0;entryX=0.54;entryY=0.994;entryDx=0;entryDy=0;exitX=0.5;exitY=0;exitDx=0;exitDy=0;entryPerimeter=0;" edge="1" parent="1" target="cek7nsQ2RfXW3LOatkp3-119">
          <mxGeometry width="160" relative="1" as="geometry">
            <mxPoint x="428" y="332" as="sourcePoint" />
            <mxPoint x="557.03" y="196.22399999999993" as="targetPoint" />
            <Array as="points">
              <mxPoint x="428" y="292" />
              <mxPoint x="558" y="292" />
            </Array>
          </mxGeometry>
        </mxCell>
        <mxCell id="3YPCHv7cXx526DVpAFdT-34" value="GamePanel" style="swimlane;fontStyle=1;align=center;verticalAlign=top;childLayout=stackLayout;horizontal=1;startSize=26;horizontalStack=0;resizeParent=1;resizeParentMax=0;resizeLast=0;collapsible=1;marginBottom=0;whiteSpace=wrap;html=1;" vertex="1" parent="1">
          <mxGeometry x="684" y="1103" width="256" height="112" as="geometry" />
        </mxCell>
        <mxCell id="3YPCHv7cXx526DVpAFdT-37" value="&lt;div&gt;&lt;div&gt;&lt;br&gt;&lt;/div&gt;&lt;/div&gt;" style="text;align=left;verticalAlign=top;spacingLeft=4;spacingRight=4;overflow=hidden;rotatable=0;points=[[0,0.5],[1,0.5]];portConstraint=eastwest;whiteSpace=wrap;html=1;strokeColor=#000000;" vertex="1" parent="3YPCHv7cXx526DVpAFdT-34">
          <mxGeometry y="26" width="256" height="34" as="geometry" />
        </mxCell>
        <mxCell id="cek7nsQ2RfXW3LOatkp3-113" value="+ setupChitCards(): void&lt;div&gt;+ getChitCardPanel(): void&lt;/div&gt;&lt;div&gt;&lt;div&gt;&lt;br&gt;&lt;/div&gt;&lt;/div&gt;" style="text;align=left;verticalAlign=top;spacingLeft=4;spacingRight=4;overflow=hidden;rotatable=0;points=[[0,0.5],[1,0.5]];portConstraint=eastwest;whiteSpace=wrap;html=1;" vertex="1" parent="3YPCHv7cXx526DVpAFdT-34">
          <mxGeometry y="60" width="256" height="52" as="geometry" />
        </mxCell>
        <mxCell id="5OmGw5FpqwG_tmo2LBkQ-1" value="" style="endArrow=none;dashed=1;html=1;rounded=0;" edge="1" parent="1">
          <mxGeometry width="50" height="50" relative="1" as="geometry">
            <mxPoint x="246" y="332" as="sourcePoint" />
            <mxPoint x="436" y="292" as="targetPoint" />
            <Array as="points">
              <mxPoint x="246" y="292" />
            </Array>
          </mxGeometry>
        </mxCell>
        <mxCell id="5OmGw5FpqwG_tmo2LBkQ-2" value="" style="endArrow=none;dashed=1;html=1;rounded=0;" edge="1" parent="1">
          <mxGeometry width="50" height="50" relative="1" as="geometry">
            <mxPoint x="606" y="332" as="sourcePoint" />
            <mxPoint x="556" y="292" as="targetPoint" />
            <Array as="points">
              <mxPoint x="606" y="292" />
            </Array>
          </mxGeometry>
        </mxCell>
        <mxCell id="5OmGw5FpqwG_tmo2LBkQ-3" value="" style="endArrow=none;dashed=1;html=1;rounded=0;" edge="1" parent="1">
          <mxGeometry width="50" height="50" relative="1" as="geometry">
            <mxPoint x="796" y="332" as="sourcePoint" />
            <mxPoint x="596" y="292" as="targetPoint" />
            <Array as="points">
              <mxPoint x="796" y="292" />
            </Array>
          </mxGeometry>
        </mxCell>
        <mxCell id="AQlqDu5M_TYfKXcTvR9i-2" value="" style="endArrow=none;dashed=1;html=1;rounded=0;" edge="1" parent="1">
          <mxGeometry width="50" height="50" relative="1" as="geometry">
            <mxPoint x="966" y="332" as="sourcePoint" />
            <mxPoint x="796" y="292" as="targetPoint" />
            <Array as="points">
              <mxPoint x="966" y="292" />
            </Array>
          </mxGeometry>
        </mxCell>
        <mxCell id="cek7nsQ2RfXW3LOatkp3-89" style="edgeStyle=orthogonalEdgeStyle;rounded=0;orthogonalLoop=1;jettySize=auto;html=1;dashed=1;endArrow=open;endFill=0;" edge="1" parent="1" target="S0c0oYzsWsoxoMVVKnZR-77">
          <mxGeometry relative="1" as="geometry">
            <mxPoint x="1250" y="567" as="sourcePoint" />
            <Array as="points">
              <mxPoint x="1510" y="567" />
              <mxPoint x="1510" y="1060" />
            </Array>
          </mxGeometry>
        </mxCell>
        <mxCell id="cek7nsQ2RfXW3LOatkp3-90" value="&amp;lt;&amp;lt;uses&amp;gt;&amp;gt;" style="edgeLabel;html=1;align=center;verticalAlign=middle;resizable=0;points=[];" connectable="0" vertex="1" parent="cek7nsQ2RfXW3LOatkp3-89">
          <mxGeometry x="0.1001" y="-5" relative="1" as="geometry">
            <mxPoint as="offset" />
          </mxGeometry>
        </mxCell>
        <mxCell id="AQlqDu5M_TYfKXcTvR9i-6" value="&lt;span style=&quot;font-weight: normal;&quot;&gt;ChitCard&lt;/span&gt;" style="swimlane;fontStyle=1;align=center;verticalAlign=top;childLayout=stackLayout;horizontal=1;startSize=26;horizontalStack=0;resizeParent=1;resizeParentMax=0;resizeLast=0;collapsible=1;marginBottom=0;whiteSpace=wrap;html=1;" vertex="1" parent="1">
          <mxGeometry x="342" y="753" width="170" height="232" as="geometry" />
        </mxCell>
        <mxCell id="AQlqDu5M_TYfKXcTvR9i-7" value="- value: int&lt;div&gt;- isFlipped: boolean&lt;/div&gt;&lt;div&gt;- chitCardImage: Image&lt;/div&gt;&lt;div&gt;- chitCardSize: int&lt;/div&gt;" style="text;align=left;verticalAlign=top;spacingLeft=4;spacingRight=4;overflow=hidden;rotatable=0;points=[[0,0.5],[1,0.5]];portConstraint=eastwest;whiteSpace=wrap;html=1;strokeColor=#000000;" vertex="1" parent="AQlqDu5M_TYfKXcTvR9i-6">
          <mxGeometry y="26" width="170" height="64" as="geometry" />
        </mxCell>
        <mxCell id="AQlqDu5M_TYfKXcTvR9i-9" value="+ setValue(int): void&lt;div&gt;+ setIsFlipped(boolean): void&lt;/div&gt;&lt;div&gt;+ setAnimal(Animal): void&lt;br&gt;&lt;/div&gt;&lt;div&gt;+ setChitCardSize(int): void&lt;/div&gt;&lt;div&gt;+ getValue(): int&lt;/div&gt;&lt;div&gt;+ getIsFlipped(): boolean&lt;/div&gt;&lt;div&gt;+ getAnimal(): Animal&lt;br&gt;&lt;/div&gt;&lt;div&gt;+ getChitCardSize(): int&lt;/div&gt;&lt;div&gt;+ getImage(): ImageIcon&lt;/div&gt;" style="text;align=left;verticalAlign=top;spacingLeft=4;spacingRight=4;overflow=hidden;rotatable=0;points=[[0,0.5],[1,0.5]];portConstraint=eastwest;whiteSpace=wrap;html=1;" vertex="1" parent="AQlqDu5M_TYfKXcTvR9i-6">
          <mxGeometry y="90" width="170" height="142" as="geometry" />
        </mxCell>
        <mxCell id="AQlqDu5M_TYfKXcTvR9i-10" value="" style="endArrow=none;html=1;rounded=0;" edge="1" parent="1">
          <mxGeometry width="50" height="50" relative="1" as="geometry">
            <mxPoint x="418.5675675675675" y="753" as="sourcePoint" />
            <mxPoint x="325.96" y="705" as="targetPoint" />
            <Array as="points">
              <mxPoint x="419" y="705" />
            </Array>
          </mxGeometry>
        </mxCell>
        <mxCell id="cek7nsQ2RfXW3LOatkp3-111" value="Extends" style="edgeLabel;html=1;align=center;verticalAlign=middle;resizable=0;points=[];" connectable="0" vertex="1" parent="AQlqDu5M_TYfKXcTvR9i-10">
          <mxGeometry x="0.4168" relative="1" as="geometry">
            <mxPoint x="-67" as="offset" />
          </mxGeometry>
        </mxCell>
        <mxCell id="AQlqDu5M_TYfKXcTvR9i-21" value="Deck" style="swimlane;fontStyle=1;align=center;verticalAlign=top;childLayout=stackLayout;horizontal=1;startSize=26;horizontalStack=0;resizeParent=1;resizeParentMax=0;resizeLast=0;collapsible=1;marginBottom=0;whiteSpace=wrap;html=1;" vertex="1" parent="1">
          <mxGeometry x="630" y="782" width="220" height="120" as="geometry" />
        </mxCell>
        <mxCell id="AQlqDu5M_TYfKXcTvR9i-22" value="- chitCards: ArrayList&amp;lt;ChitCard&amp;gt;&amp;nbsp;" style="text;strokeColor=none;fillColor=none;align=left;verticalAlign=top;spacingLeft=4;spacingRight=4;overflow=hidden;rotatable=0;points=[[0,0.5],[1,0.5]];portConstraint=eastwest;whiteSpace=wrap;html=1;" vertex="1" parent="AQlqDu5M_TYfKXcTvR9i-21">
          <mxGeometry y="26" width="220" height="26" as="geometry" />
        </mxCell>
        <mxCell id="AQlqDu5M_TYfKXcTvR9i-23" value="" style="line;strokeWidth=1;fillColor=none;align=left;verticalAlign=middle;spacingTop=-1;spacingLeft=3;spacingRight=3;rotatable=0;labelPosition=right;points=[];portConstraint=eastwest;strokeColor=inherit;" vertex="1" parent="AQlqDu5M_TYfKXcTvR9i-21">
          <mxGeometry y="52" width="220" height="8" as="geometry" />
        </mxCell>
        <mxCell id="AQlqDu5M_TYfKXcTvR9i-24" value="+ getChitCards(): ArrayList&amp;lt;ChitCard&amp;gt;&lt;div&gt;+ createFullDeck(): void&lt;/div&gt;&lt;div&gt;+ shuffleDeck(): void&lt;/div&gt;" style="text;strokeColor=none;fillColor=none;align=left;verticalAlign=top;spacingLeft=4;spacingRight=4;overflow=hidden;rotatable=0;points=[[0,0.5],[1,0.5]];portConstraint=eastwest;whiteSpace=wrap;html=1;" vertex="1" parent="AQlqDu5M_TYfKXcTvR9i-21">
          <mxGeometry y="60" width="220" height="60" as="geometry" />
        </mxCell>
        <mxCell id="AQlqDu5M_TYfKXcTvR9i-25" value="CaveController" style="swimlane;fontStyle=1;align=center;verticalAlign=top;childLayout=stackLayout;horizontal=1;startSize=26;horizontalStack=0;resizeParent=1;resizeParentMax=0;resizeLast=0;collapsible=1;marginBottom=0;whiteSpace=wrap;html=1;fillColor=#fff2cc;strokeColor=#d6b656;" vertex="1" parent="1">
          <mxGeometry x="1110" y="1352" width="260" height="182" as="geometry" />
        </mxCell>
        <mxCell id="AQlqDu5M_TYfKXcTvR9i-26" value="- caves: ArrayList&amp;lt;Cave&amp;gt;&lt;div&gt;- players: ArrayList&amp;lt;String&amp;gt;&lt;br&gt;&lt;div&gt;- gamePanel: GamePanel&lt;/div&gt;&lt;/div&gt;&lt;div&gt;&lt;br&gt;&lt;/div&gt;" style="text;align=left;verticalAlign=top;spacingLeft=4;spacingRight=4;overflow=hidden;rotatable=0;points=[[0,0.5],[1,0.5]];portConstraint=eastwest;whiteSpace=wrap;html=1;fillColor=#fff2cc;strokeColor=#d6b656;" vertex="1" parent="AQlqDu5M_TYfKXcTvR9i-25">
          <mxGeometry y="26" width="260" height="54" as="geometry" />
        </mxCell>
        <mxCell id="AQlqDu5M_TYfKXcTvR9i-28" value="&lt;div&gt;+ initialiseCaveSetup(): void&lt;/div&gt;&lt;div&gt;+ setGamePanel(): void&lt;br&gt;&lt;/div&gt;&lt;div&gt;+ getGamePanel(): GamePanel&lt;/div&gt;&lt;div&gt;+ setCaves(): void&lt;/div&gt;&lt;div&gt;+ getCaves(): ArrayList&amp;lt;Cave&amp;gt;&lt;/div&gt;&lt;div&gt;&lt;br&gt;&lt;/div&gt;" style="text;align=left;verticalAlign=top;spacingLeft=4;spacingRight=4;overflow=hidden;rotatable=0;points=[[0,0.5],[1,0.5]];portConstraint=eastwest;whiteSpace=wrap;html=1;fillColor=#fff2cc;strokeColor=#d6b656;" vertex="1" parent="AQlqDu5M_TYfKXcTvR9i-25">
          <mxGeometry y="80" width="260" height="102" as="geometry" />
        </mxCell>
        <mxCell id="AQlqDu5M_TYfKXcTvR9i-29" value="VolcanoCardController" style="swimlane;fontStyle=1;align=center;verticalAlign=top;childLayout=stackLayout;horizontal=1;startSize=26;horizontalStack=0;resizeParent=1;resizeParentMax=0;resizeLast=0;collapsible=1;marginBottom=0;whiteSpace=wrap;html=1;" vertex="1" parent="1">
          <mxGeometry x="803" y="1352" width="260" height="182" as="geometry" />
        </mxCell>
        <mxCell id="AQlqDu5M_TYfKXcTvR9i-30" value="- volcanoCards: ArrayList&amp;lt;VolcanoCard&amp;gt;&lt;div&gt;- gamePanel: GamePanel&lt;/div&gt;&lt;div&gt;- numberOfCards: int&lt;/div&gt;&lt;div&gt;- numberOfSquaresInACard: int&lt;/div&gt;" style="text;align=left;verticalAlign=top;spacingLeft=4;spacingRight=4;overflow=hidden;rotatable=0;points=[[0,0.5],[1,0.5]];portConstraint=eastwest;whiteSpace=wrap;html=1;strokeColor=#000000;" vertex="1" parent="AQlqDu5M_TYfKXcTvR9i-29">
          <mxGeometry y="26" width="260" height="74" as="geometry" />
        </mxCell>
        <mxCell id="AQlqDu5M_TYfKXcTvR9i-32" value="&lt;div&gt;+ initialiseVolcanoCards(): void&lt;br&gt;&lt;/div&gt;+ setGamePanel(): void&lt;div&gt;+ setVolcanoCards(): void&lt;br&gt;&lt;div&gt;+ getVolcanoCards(VolcanoCard, int): void&lt;/div&gt;&lt;/div&gt;&lt;div&gt;+ getGamePanel(): GamePanel&lt;/div&gt;" style="text;align=left;verticalAlign=top;spacingLeft=4;spacingRight=4;overflow=hidden;rotatable=0;points=[[0,0.5],[1,0.5]];portConstraint=eastwest;whiteSpace=wrap;html=1;" vertex="1" parent="AQlqDu5M_TYfKXcTvR9i-29">
          <mxGeometry y="100" width="260" height="82" as="geometry" />
        </mxCell>
        <mxCell id="AQlqDu5M_TYfKXcTvR9i-33" value="ChitCardController" style="swimlane;fontStyle=1;align=center;verticalAlign=top;childLayout=stackLayout;horizontal=1;startSize=26;horizontalStack=0;resizeParent=1;resizeParentMax=0;resizeLast=0;collapsible=1;marginBottom=0;whiteSpace=wrap;html=1;" vertex="1" parent="1">
          <mxGeometry x="510" y="1352" width="250" height="182" as="geometry" />
        </mxCell>
        <mxCell id="AQlqDu5M_TYfKXcTvR9i-34" value="- deck: Deck&lt;div&gt;- gamePanel: GamePanel&lt;/div&gt;" style="text;align=left;verticalAlign=top;spacingLeft=4;spacingRight=4;overflow=hidden;rotatable=0;points=[[0,0.5],[1,0.5]];portConstraint=eastwest;whiteSpace=wrap;html=1;strokeColor=#000000;" vertex="1" parent="AQlqDu5M_TYfKXcTvR9i-33">
          <mxGeometry y="26" width="250" height="44" as="geometry" />
        </mxCell>
        <mxCell id="AQlqDu5M_TYfKXcTvR9i-36" value="+ initialiseChitCardSetup(): void&lt;div&gt;+ getGamePanel(): GamePanel&lt;/div&gt;&lt;div&gt;+ setDeck(): void&lt;/div&gt;&lt;div&gt;+ getDeck(): Deck&lt;/div&gt;" style="text;align=left;verticalAlign=top;spacingLeft=4;spacingRight=4;overflow=hidden;rotatable=0;points=[[0,0.5],[1,0.5]];portConstraint=eastwest;whiteSpace=wrap;html=1;" vertex="1" parent="AQlqDu5M_TYfKXcTvR9i-33">
          <mxGeometry y="70" width="250" height="112" as="geometry" />
        </mxCell>
        <mxCell id="AQlqDu5M_TYfKXcTvR9i-38" value="" style="endArrow=open;html=1;endSize=12;startArrow=diamondThin;startSize=14;startFill=0;edgeStyle=orthogonalEdgeStyle;align=left;verticalAlign=bottom;rounded=0;entryX=0.997;entryY=0.68;entryDx=0;entryDy=0;entryPerimeter=0;" edge="1" parent="1" target="AQlqDu5M_TYfKXcTvR9i-7">
          <mxGeometry x="-1" y="3" relative="1" as="geometry">
            <mxPoint x="630" y="822" as="sourcePoint" />
            <mxPoint x="520" y="822" as="targetPoint" />
          </mxGeometry>
        </mxCell>
        <mxCell id="9r87qQDj3Cpcp6xwhoB7-42" value="contains" style="edgeLabel;html=1;align=center;verticalAlign=middle;resizable=0;points=[];" connectable="0" vertex="1" parent="AQlqDu5M_TYfKXcTvR9i-38">
          <mxGeometry x="0.0382" y="2" relative="1" as="geometry">
            <mxPoint as="offset" />
          </mxGeometry>
        </mxCell>
        <mxCell id="AQlqDu5M_TYfKXcTvR9i-45" value="TokenController" style="swimlane;fontStyle=1;align=center;verticalAlign=top;childLayout=stackLayout;horizontal=1;startSize=26;horizontalStack=0;resizeParent=1;resizeParentMax=0;resizeLast=0;collapsible=1;marginBottom=0;whiteSpace=wrap;html=1;" vertex="1" parent="1">
          <mxGeometry x="100" y="1352" width="370" height="182" as="geometry" />
        </mxCell>
        <mxCell id="AQlqDu5M_TYfKXcTvR9i-46" value="- tokens: ArrayList&amp;lt;Token&amp;gt;" style="text;align=left;verticalAlign=top;spacingLeft=4;spacingRight=4;overflow=hidden;rotatable=0;points=[[0,0.5],[1,0.5]];portConstraint=eastwest;whiteSpace=wrap;html=1;strokeColor=#000000;" vertex="1" parent="AQlqDu5M_TYfKXcTvR9i-45">
          <mxGeometry y="26" width="370" height="24" as="geometry" />
        </mxCell>
        <mxCell id="AQlqDu5M_TYfKXcTvR9i-48" value="&lt;div&gt;+ initialiseToken(): void&lt;/div&gt;&lt;div&gt;+ computePaths(ArrayList&amp;lt;VolcanoCard&amp;gt;, ArrayList&amp;lt;Cave&amp;gt;): void&lt;/div&gt;&lt;div&gt;+ setTokens(&lt;span style=&quot;background-color: initial;&quot;&gt;ArrayList&amp;lt;Token&amp;gt;&lt;/span&gt;&lt;span style=&quot;background-color: initial;&quot;&gt;): void&lt;/span&gt;&lt;/div&gt;&lt;div&gt;+ getTokens(): ArrayList&amp;lt;Token&amp;gt;&lt;/div&gt;&lt;div&gt;&lt;br&gt;&lt;/div&gt;" style="text;align=left;verticalAlign=top;spacingLeft=4;spacingRight=4;overflow=hidden;rotatable=0;points=[[0,0.5],[1,0.5]];portConstraint=eastwest;whiteSpace=wrap;html=1;" vertex="1" parent="AQlqDu5M_TYfKXcTvR9i-45">
          <mxGeometry y="50" width="370" height="132" as="geometry" />
        </mxCell>
        <mxCell id="AQlqDu5M_TYfKXcTvR9i-65" value="" style="endArrow=open;endSize=12;dashed=1;html=1;rounded=0;entryX=1;entryY=0.5;entryDx=0;entryDy=0;exitX=-0.024;exitY=0.761;exitDx=0;exitDy=0;exitPerimeter=0;" edge="1" parent="1">
          <mxGeometry width="160" relative="1" as="geometry">
            <mxPoint x="1019.184" y="147.78600000000006" as="sourcePoint" />
            <mxPoint x="645" y="148.49999999999994" as="targetPoint" />
          </mxGeometry>
        </mxCell>
        <mxCell id="cek7nsQ2RfXW3LOatkp3-86" value="&amp;lt;&amp;lt;creates&amp;gt;&amp;gt;" style="edgeLabel;html=1;align=center;verticalAlign=middle;resizable=0;points=[];" connectable="0" vertex="1" parent="AQlqDu5M_TYfKXcTvR9i-65">
          <mxGeometry x="0.0903" y="4" relative="1" as="geometry">
            <mxPoint as="offset" />
          </mxGeometry>
        </mxCell>
        <mxCell id="AQlqDu5M_TYfKXcTvR9i-91" value="&lt;span style=&quot;font-weight: 400;&quot;&gt;PirateDragon&lt;/span&gt;" style="swimlane;fontStyle=1;align=center;verticalAlign=top;childLayout=stackLayout;horizontal=1;startSize=26;horizontalStack=0;resizeParent=1;resizeParentMax=0;resizeLast=0;collapsible=1;marginBottom=0;whiteSpace=wrap;html=1;fillColor=#fff2cc;strokeColor=#d6b656;" vertex="1" parent="1">
          <mxGeometry x="900" y="332" width="150" height="132" as="geometry" />
        </mxCell>
        <mxCell id="AQlqDu5M_TYfKXcTvR9i-92" value="- name: String&lt;div&gt;- maxVal: int&lt;/div&gt;" style="text;align=left;verticalAlign=top;spacingLeft=4;spacingRight=4;overflow=hidden;rotatable=0;points=[[0,0.5],[1,0.5]];portConstraint=eastwest;whiteSpace=wrap;html=1;fillColor=#fff2cc;strokeColor=#d6b656;" vertex="1" parent="AQlqDu5M_TYfKXcTvR9i-91">
          <mxGeometry y="26" width="150" height="44" as="geometry" />
        </mxCell>
        <mxCell id="AQlqDu5M_TYfKXcTvR9i-94" value="&lt;p style=&quot;forced-color-adjust: none; color: rgb(0, 0, 0); font-family: Helvetica; font-size: 12px; font-style: normal; font-variant-ligatures: normal; font-variant-caps: normal; font-weight: 400; letter-spacing: normal; orphans: 2; text-align: left; text-indent: 0px; text-transform: none; widows: 2; word-spacing: 0px; -webkit-text-stroke-width: 0px; white-space: normal; background-color: rgb(251, 251, 251); text-decoration-thickness: initial; text-decoration-style: initial; text-decoration-color: initial; margin: 0px 0px 0px 4px;&quot;&gt;&lt;span style=&quot;forced-color-adjust: none; background-color: initial;&quot;&gt;+ getMaxVal(): int&lt;/span&gt;&lt;br style=&quot;forced-color-adjust: none;&quot;&gt;&lt;/p&gt;&lt;p style=&quot;forced-color-adjust: none; color: rgb(0, 0, 0); font-family: Helvetica; font-size: 12px; font-style: normal; font-variant-ligatures: normal; font-variant-caps: normal; font-weight: 400; letter-spacing: normal; orphans: 2; text-align: left; text-indent: 0px; text-transform: none; widows: 2; word-spacing: 0px; -webkit-text-stroke-width: 0px; white-space: normal; background-color: rgb(251, 251, 251); text-decoration-thickness: initial; text-decoration-style: initial; text-decoration-color: initial; margin: 0px 0px 0px 4px;&quot;&gt;+ getName(): String&lt;/p&gt;&lt;p style=&quot;forced-color-adjust: none; color: rgb(0, 0, 0); font-family: Helvetica; font-size: 12px; font-style: normal; font-variant-ligatures: normal; font-variant-caps: normal; font-weight: 400; letter-spacing: normal; orphans: 2; text-align: left; text-indent: 0px; text-transform: none; widows: 2; word-spacing: 0px; -webkit-text-stroke-width: 0px; white-space: normal; background-color: rgb(251, 251, 251); text-decoration-thickness: initial; text-decoration-style: initial; text-decoration-color: initial; margin: 0px 0px 0px 4px;&quot;&gt;+ isSpecial(): boolean&lt;br&gt;&lt;/p&gt;" style="text;align=left;verticalAlign=top;spacingLeft=4;spacingRight=4;overflow=hidden;rotatable=0;points=[[0,0.5],[1,0.5]];portConstraint=eastwest;whiteSpace=wrap;html=1;fillColor=#fff2cc;strokeColor=#d6b656;" vertex="1" parent="AQlqDu5M_TYfKXcTvR9i-91">
          <mxGeometry y="70" width="150" height="62" as="geometry" />
        </mxCell>
        <mxCell id="AQlqDu5M_TYfKXcTvR9i-95" value="&lt;span style=&quot;font-weight: 400;&quot;&gt;BabyDragon&lt;/span&gt;" style="swimlane;fontStyle=1;align=center;verticalAlign=top;childLayout=stackLayout;horizontal=1;startSize=26;horizontalStack=0;resizeParent=1;resizeParentMax=0;resizeLast=0;collapsible=1;marginBottom=0;whiteSpace=wrap;html=1;fillColor=#fff2cc;strokeColor=#d6b656;" vertex="1" parent="1">
          <mxGeometry x="720" y="332" width="150" height="132" as="geometry" />
        </mxCell>
        <mxCell id="AQlqDu5M_TYfKXcTvR9i-96" value="- name: String&lt;div&gt;- maxVal: int&lt;/div&gt;" style="text;align=left;verticalAlign=top;spacingLeft=4;spacingRight=4;overflow=hidden;rotatable=0;points=[[0,0.5],[1,0.5]];portConstraint=eastwest;whiteSpace=wrap;html=1;fillColor=#fff2cc;strokeColor=#d6b656;" vertex="1" parent="AQlqDu5M_TYfKXcTvR9i-95">
          <mxGeometry y="26" width="150" height="44" as="geometry" />
        </mxCell>
        <mxCell id="AQlqDu5M_TYfKXcTvR9i-98" value="&lt;p style=&quot;forced-color-adjust: none; color: rgb(0, 0, 0); font-family: Helvetica; font-size: 12px; font-style: normal; font-variant-ligatures: normal; font-variant-caps: normal; font-weight: 400; letter-spacing: normal; orphans: 2; text-align: left; text-indent: 0px; text-transform: none; widows: 2; word-spacing: 0px; -webkit-text-stroke-width: 0px; white-space: normal; background-color: rgb(251, 251, 251); text-decoration-thickness: initial; text-decoration-style: initial; text-decoration-color: initial; margin: 0px 0px 0px 4px;&quot;&gt;&lt;span style=&quot;forced-color-adjust: none; background-color: initial;&quot;&gt;+ getMaxVal(): int&lt;/span&gt;&lt;br style=&quot;forced-color-adjust: none;&quot;&gt;&lt;/p&gt;&lt;p style=&quot;forced-color-adjust: none; color: rgb(0, 0, 0); font-family: Helvetica; font-size: 12px; font-style: normal; font-variant-ligatures: normal; font-variant-caps: normal; font-weight: 400; letter-spacing: normal; orphans: 2; text-align: left; text-indent: 0px; text-transform: none; widows: 2; word-spacing: 0px; -webkit-text-stroke-width: 0px; white-space: normal; background-color: rgb(251, 251, 251); text-decoration-thickness: initial; text-decoration-style: initial; text-decoration-color: initial; margin: 0px 0px 0px 4px;&quot;&gt;+ getName(): String&lt;/p&gt;&lt;p style=&quot;forced-color-adjust: none; color: rgb(0, 0, 0); font-family: Helvetica; font-size: 12px; font-style: normal; font-variant-ligatures: normal; font-variant-caps: normal; font-weight: 400; letter-spacing: normal; orphans: 2; text-align: left; text-indent: 0px; text-transform: none; widows: 2; word-spacing: 0px; -webkit-text-stroke-width: 0px; white-space: normal; background-color: rgb(251, 251, 251); text-decoration-thickness: initial; text-decoration-style: initial; text-decoration-color: initial; margin: 0px 0px 0px 4px;&quot;&gt;+ isSpecial(): boolean&lt;br&gt;&lt;/p&gt;&lt;div&gt;&lt;br/&gt;&lt;/div&gt;" style="text;align=left;verticalAlign=top;spacingLeft=4;spacingRight=4;overflow=hidden;rotatable=0;points=[[0,0.5],[1,0.5]];portConstraint=eastwest;whiteSpace=wrap;html=1;fillColor=#fff2cc;strokeColor=#d6b656;" vertex="1" parent="AQlqDu5M_TYfKXcTvR9i-95">
          <mxGeometry y="70" width="150" height="62" as="geometry" />
        </mxCell>
        <mxCell id="AQlqDu5M_TYfKXcTvR9i-99" value="&lt;span style=&quot;font-weight: 400;&quot;&gt;Salamander&lt;/span&gt;" style="swimlane;fontStyle=1;align=center;verticalAlign=top;childLayout=stackLayout;horizontal=1;startSize=26;horizontalStack=0;resizeParent=1;resizeParentMax=0;resizeLast=0;collapsible=1;marginBottom=0;whiteSpace=wrap;html=1;fillColor=#fff2cc;strokeColor=#d6b656;" vertex="1" parent="1">
          <mxGeometry x="540" y="332" width="150" height="132" as="geometry" />
        </mxCell>
        <mxCell id="AQlqDu5M_TYfKXcTvR9i-100" value="- name: String&lt;div&gt;- maxVal: int&lt;/div&gt;" style="text;align=left;verticalAlign=top;spacingLeft=4;spacingRight=4;overflow=hidden;rotatable=0;points=[[0,0.5],[1,0.5]];portConstraint=eastwest;whiteSpace=wrap;html=1;fillColor=#fff2cc;strokeColor=#d6b656;" vertex="1" parent="AQlqDu5M_TYfKXcTvR9i-99">
          <mxGeometry y="26" width="150" height="44" as="geometry" />
        </mxCell>
        <mxCell id="AQlqDu5M_TYfKXcTvR9i-102" value="&lt;p style=&quot;forced-color-adjust: none; color: rgb(0, 0, 0); font-family: Helvetica; font-size: 12px; font-style: normal; font-variant-ligatures: normal; font-variant-caps: normal; font-weight: 400; letter-spacing: normal; orphans: 2; text-align: left; text-indent: 0px; text-transform: none; widows: 2; word-spacing: 0px; -webkit-text-stroke-width: 0px; white-space: normal; background-color: rgb(251, 251, 251); text-decoration-thickness: initial; text-decoration-style: initial; text-decoration-color: initial; margin: 0px 0px 0px 4px;&quot;&gt;&lt;span style=&quot;forced-color-adjust: none; background-color: initial;&quot;&gt;+ getMaxVal(): int&lt;/span&gt;&lt;br style=&quot;forced-color-adjust: none;&quot;&gt;&lt;/p&gt;&lt;p style=&quot;forced-color-adjust: none; color: rgb(0, 0, 0); font-family: Helvetica; font-size: 12px; font-style: normal; font-variant-ligatures: normal; font-variant-caps: normal; font-weight: 400; letter-spacing: normal; orphans: 2; text-align: left; text-indent: 0px; text-transform: none; widows: 2; word-spacing: 0px; -webkit-text-stroke-width: 0px; white-space: normal; background-color: rgb(251, 251, 251); text-decoration-thickness: initial; text-decoration-style: initial; text-decoration-color: initial; margin: 0px 0px 0px 4px;&quot;&gt;+ getName(): String&lt;/p&gt;&lt;p style=&quot;forced-color-adjust: none; color: rgb(0, 0, 0); font-family: Helvetica; font-size: 12px; font-style: normal; font-variant-ligatures: normal; font-variant-caps: normal; font-weight: 400; letter-spacing: normal; orphans: 2; text-align: left; text-indent: 0px; text-transform: none; widows: 2; word-spacing: 0px; -webkit-text-stroke-width: 0px; white-space: normal; background-color: rgb(251, 251, 251); text-decoration-thickness: initial; text-decoration-style: initial; text-decoration-color: initial; margin: 0px 0px 0px 4px;&quot;&gt;+ isSpecial(): boolean&lt;br&gt;&lt;/p&gt;&lt;div&gt;&lt;br/&gt;&lt;/div&gt;" style="text;align=left;verticalAlign=top;spacingLeft=4;spacingRight=4;overflow=hidden;rotatable=0;points=[[0,0.5],[1,0.5]];portConstraint=eastwest;whiteSpace=wrap;html=1;fillColor=#fff2cc;strokeColor=#d6b656;" vertex="1" parent="AQlqDu5M_TYfKXcTvR9i-99">
          <mxGeometry y="70" width="150" height="62" as="geometry" />
        </mxCell>
        <mxCell id="AQlqDu5M_TYfKXcTvR9i-103" value="&lt;span style=&quot;font-weight: 400;&quot;&gt;Spider&lt;/span&gt;" style="swimlane;fontStyle=1;align=center;verticalAlign=top;childLayout=stackLayout;horizontal=1;startSize=26;horizontalStack=0;resizeParent=1;resizeParentMax=0;resizeLast=0;collapsible=1;marginBottom=0;whiteSpace=wrap;html=1;fillColor=#fff2cc;strokeColor=#d6b656;" vertex="1" parent="1">
          <mxGeometry x="360" y="332" width="150" height="132" as="geometry" />
        </mxCell>
        <mxCell id="AQlqDu5M_TYfKXcTvR9i-104" value="- name: String&lt;div&gt;- maxVal: int&lt;/div&gt;" style="text;align=left;verticalAlign=top;spacingLeft=4;spacingRight=4;overflow=hidden;rotatable=0;points=[[0,0.5],[1,0.5]];portConstraint=eastwest;whiteSpace=wrap;html=1;fillColor=#fff2cc;strokeColor=#d6b656;" vertex="1" parent="AQlqDu5M_TYfKXcTvR9i-103">
          <mxGeometry y="26" width="150" height="44" as="geometry" />
        </mxCell>
        <mxCell id="AQlqDu5M_TYfKXcTvR9i-106" value="&lt;p style=&quot;forced-color-adjust: none; color: rgb(0, 0, 0); font-family: Helvetica; font-size: 12px; font-style: normal; font-variant-ligatures: normal; font-variant-caps: normal; font-weight: 400; letter-spacing: normal; orphans: 2; text-align: left; text-indent: 0px; text-transform: none; widows: 2; word-spacing: 0px; -webkit-text-stroke-width: 0px; white-space: normal; background-color: rgb(251, 251, 251); text-decoration-thickness: initial; text-decoration-style: initial; text-decoration-color: initial; margin: 0px 0px 0px 4px;&quot;&gt;&lt;span style=&quot;forced-color-adjust: none; background-color: initial;&quot;&gt;+ getMaxVal(): int&lt;/span&gt;&lt;br style=&quot;forced-color-adjust: none;&quot;&gt;&lt;/p&gt;&lt;p style=&quot;forced-color-adjust: none; color: rgb(0, 0, 0); font-family: Helvetica; font-size: 12px; font-style: normal; font-variant-ligatures: normal; font-variant-caps: normal; font-weight: 400; letter-spacing: normal; orphans: 2; text-align: left; text-indent: 0px; text-transform: none; widows: 2; word-spacing: 0px; -webkit-text-stroke-width: 0px; white-space: normal; background-color: rgb(251, 251, 251); text-decoration-thickness: initial; text-decoration-style: initial; text-decoration-color: initial; margin: 0px 0px 0px 4px;&quot;&gt;+ getName(): String&lt;/p&gt;&lt;p style=&quot;forced-color-adjust: none; color: rgb(0, 0, 0); font-family: Helvetica; font-size: 12px; font-style: normal; font-variant-ligatures: normal; font-variant-caps: normal; font-weight: 400; letter-spacing: normal; orphans: 2; text-align: left; text-indent: 0px; text-transform: none; widows: 2; word-spacing: 0px; -webkit-text-stroke-width: 0px; white-space: normal; background-color: rgb(251, 251, 251); text-decoration-thickness: initial; text-decoration-style: initial; text-decoration-color: initial; margin: 0px 0px 0px 4px;&quot;&gt;+ isSpecial(): boolean&lt;br&gt;&lt;/p&gt;&lt;div&gt;&lt;br/&gt;&lt;/div&gt;" style="text;align=left;verticalAlign=top;spacingLeft=4;spacingRight=4;overflow=hidden;rotatable=0;points=[[0,0.5],[1,0.5]];portConstraint=eastwest;whiteSpace=wrap;html=1;fillColor=#fff2cc;strokeColor=#d6b656;" vertex="1" parent="AQlqDu5M_TYfKXcTvR9i-103">
          <mxGeometry y="70" width="150" height="62" as="geometry" />
        </mxCell>
        <mxCell id="CSc-HqukX6OAdU_zI9h8-11" value="" style="endArrow=open;endFill=1;endSize=12;html=1;rounded=0;entryX=0;entryY=0.5;entryDx=0;entryDy=0;" edge="1" parent="1">
          <mxGeometry width="160" relative="1" as="geometry">
            <mxPoint x="456" y="611.47" as="sourcePoint" />
            <mxPoint x="455" y="148.49999999999994" as="targetPoint" />
            <Array as="points">
              <mxPoint x="480" y="611" />
              <mxPoint x="480" y="530" />
              <mxPoint x="160" y="530" />
              <mxPoint x="160" y="340" />
              <mxPoint x="160" y="150" />
            </Array>
          </mxGeometry>
        </mxCell>
        <mxCell id="9r87qQDj3Cpcp6xwhoB7-15" value="1" style="text;html=1;align=center;verticalAlign=middle;whiteSpace=wrap;rounded=0;" vertex="1" parent="1">
          <mxGeometry x="391" y="122" width="60" height="30" as="geometry" />
        </mxCell>
        <mxCell id="9r87qQDj3Cpcp6xwhoB7-16" value="1" style="text;html=1;align=center;verticalAlign=middle;whiteSpace=wrap;rounded=0;" vertex="1" parent="1">
          <mxGeometry x="440" y="612" width="60" height="30" as="geometry" />
        </mxCell>
        <mxCell id="9r87qQDj3Cpcp6xwhoB7-26" value="1" style="text;html=1;align=center;verticalAlign=middle;whiteSpace=wrap;rounded=0;" vertex="1" parent="1">
          <mxGeometry x="580" y="783" width="60" height="30" as="geometry" />
        </mxCell>
        <mxCell id="9r87qQDj3Cpcp6xwhoB7-27" value="16" style="text;html=1;align=center;verticalAlign=middle;whiteSpace=wrap;rounded=0;" vertex="1" parent="1">
          <mxGeometry x="492.5" y="783" width="60" height="30" as="geometry" />
        </mxCell>
        <mxCell id="cNZdW6esm4BBX129etsO-5" value="StartButton" style="swimlane;fontStyle=1;align=center;verticalAlign=top;childLayout=stackLayout;horizontal=1;startSize=26;horizontalStack=0;resizeParent=1;resizeParentMax=0;resizeLast=0;collapsible=1;marginBottom=0;whiteSpace=wrap;html=1;" vertex="1" parent="1">
          <mxGeometry x="1199" y="1610" width="220" height="78" as="geometry" />
        </mxCell>
        <mxCell id="cNZdW6esm4BBX129etsO-8" value="" style="text;align=left;verticalAlign=top;spacingLeft=4;spacingRight=4;overflow=hidden;rotatable=0;points=[[0,0.5],[1,0.5]];portConstraint=eastwest;whiteSpace=wrap;html=1;strokeColor=#000000;" vertex="1" parent="cNZdW6esm4BBX129etsO-5">
          <mxGeometry y="26" width="220" height="26" as="geometry" />
        </mxCell>
        <mxCell id="cek7nsQ2RfXW3LOatkp3-127" value="+ actionPerformed(ActionEvent): void" style="text;align=left;verticalAlign=top;spacingLeft=4;spacingRight=4;overflow=hidden;rotatable=0;points=[[0,0.5],[1,0.5]];portConstraint=eastwest;whiteSpace=wrap;html=1;" vertex="1" parent="cNZdW6esm4BBX129etsO-5">
          <mxGeometry y="52" width="220" height="26" as="geometry" />
        </mxCell>
        <mxCell id="cNZdW6esm4BBX129etsO-9" value="RestartButton" style="swimlane;fontStyle=1;align=center;verticalAlign=top;childLayout=stackLayout;horizontal=1;startSize=26;horizontalStack=0;resizeParent=1;resizeParentMax=0;resizeLast=0;collapsible=1;marginBottom=0;whiteSpace=wrap;html=1;" vertex="1" parent="1">
          <mxGeometry x="1200" y="1700" width="220" height="78" as="geometry" />
        </mxCell>
        <mxCell id="cNZdW6esm4BBX129etsO-12" value="" style="text;align=left;verticalAlign=top;spacingLeft=4;spacingRight=4;overflow=hidden;rotatable=0;points=[[0,0.5],[1,0.5]];portConstraint=eastwest;whiteSpace=wrap;html=1;strokeColor=#000000;" vertex="1" parent="cNZdW6esm4BBX129etsO-9">
          <mxGeometry y="26" width="220" height="26" as="geometry" />
        </mxCell>
        <mxCell id="cek7nsQ2RfXW3LOatkp3-128" value="+ actionPerformed(ActionEvent): void" style="text;align=left;verticalAlign=top;spacingLeft=4;spacingRight=4;overflow=hidden;rotatable=0;points=[[0,0.5],[1,0.5]];portConstraint=eastwest;whiteSpace=wrap;html=1;" vertex="1" parent="cNZdW6esm4BBX129etsO-9">
          <mxGeometry y="52" width="220" height="26" as="geometry" />
        </mxCell>
        <mxCell id="cNZdW6esm4BBX129etsO-13" value="ExitButton" style="swimlane;fontStyle=1;align=center;verticalAlign=top;childLayout=stackLayout;horizontal=1;startSize=26;horizontalStack=0;resizeParent=1;resizeParentMax=0;resizeLast=0;collapsible=1;marginBottom=0;whiteSpace=wrap;html=1;" vertex="1" parent="1">
          <mxGeometry x="1200" y="1789" width="220" height="78" as="geometry" />
        </mxCell>
        <mxCell id="cNZdW6esm4BBX129etsO-16" value="" style="text;align=left;verticalAlign=top;spacingLeft=4;spacingRight=4;overflow=hidden;rotatable=0;points=[[0,0.5],[1,0.5]];portConstraint=eastwest;whiteSpace=wrap;html=1;" vertex="1" parent="cNZdW6esm4BBX129etsO-13">
          <mxGeometry y="26" width="220" height="26" as="geometry" />
        </mxCell>
        <mxCell id="cek7nsQ2RfXW3LOatkp3-129" value="+ actionPerformed(ActionEvent): void" style="text;align=left;verticalAlign=top;spacingLeft=4;spacingRight=4;overflow=hidden;rotatable=0;points=[[0,0.5],[1,0.5]];portConstraint=eastwest;whiteSpace=wrap;html=1;strokeColor=#000000;" vertex="1" parent="cNZdW6esm4BBX129etsO-13">
          <mxGeometry y="52" width="220" height="26" as="geometry" />
        </mxCell>
        <mxCell id="cNZdW6esm4BBX129etsO-17" value="GameRuleButton" style="swimlane;fontStyle=1;align=center;verticalAlign=top;childLayout=stackLayout;horizontal=1;startSize=26;horizontalStack=0;resizeParent=1;resizeParentMax=0;resizeLast=0;collapsible=1;marginBottom=0;whiteSpace=wrap;html=1;" vertex="1" parent="1">
          <mxGeometry x="1200" y="1879" width="220" height="78" as="geometry" />
        </mxCell>
        <mxCell id="cNZdW6esm4BBX129etsO-20" value="" style="text;align=left;verticalAlign=top;spacingLeft=4;spacingRight=4;overflow=hidden;rotatable=0;points=[[0,0.5],[1,0.5]];portConstraint=eastwest;whiteSpace=wrap;html=1;" vertex="1" parent="cNZdW6esm4BBX129etsO-17">
          <mxGeometry y="26" width="220" height="26" as="geometry" />
        </mxCell>
        <mxCell id="cek7nsQ2RfXW3LOatkp3-130" value="+ actionPerformed(ActionEvent): void" style="text;align=left;verticalAlign=top;spacingLeft=4;spacingRight=4;overflow=hidden;rotatable=0;points=[[0,0.5],[1,0.5]];portConstraint=eastwest;whiteSpace=wrap;html=1;strokeColor=#000000;" vertex="1" parent="cNZdW6esm4BBX129etsO-17">
          <mxGeometry y="52" width="220" height="26" as="geometry" />
        </mxCell>
        <mxCell id="cNZdW6esm4BBX129etsO-21" value="MoveBackwardsAction" style="swimlane;fontStyle=1;align=center;verticalAlign=top;childLayout=stackLayout;horizontal=1;startSize=26;horizontalStack=0;resizeParent=1;resizeParentMax=0;resizeLast=0;collapsible=1;marginBottom=0;whiteSpace=wrap;html=1;" vertex="1" parent="1">
          <mxGeometry x="330" y="1770" width="160" height="78" as="geometry">
            <mxRectangle x="330" y="1770" width="160" height="30" as="alternateBounds" />
          </mxGeometry>
        </mxCell>
        <mxCell id="cNZdW6esm4BBX129etsO-24" value="" style="text;align=left;verticalAlign=top;spacingLeft=4;spacingRight=4;overflow=hidden;rotatable=0;points=[[0,0.5],[1,0.5]];portConstraint=eastwest;whiteSpace=wrap;html=1;strokeColor=#000000;" vertex="1" parent="cNZdW6esm4BBX129etsO-21">
          <mxGeometry y="26" width="160" height="26" as="geometry" />
        </mxCell>
        <mxCell id="cek7nsQ2RfXW3LOatkp3-120" value="+ execute(int, Token): String" style="text;align=left;verticalAlign=top;spacingLeft=4;spacingRight=4;overflow=hidden;rotatable=0;points=[[0,0.5],[1,0.5]];portConstraint=eastwest;whiteSpace=wrap;html=1;" vertex="1" parent="cNZdW6esm4BBX129etsO-21">
          <mxGeometry y="52" width="160" height="26" as="geometry" />
        </mxCell>
        <mxCell id="cNZdW6esm4BBX129etsO-25" value="MoveForwardsAction" style="swimlane;fontStyle=1;align=center;verticalAlign=top;childLayout=stackLayout;horizontal=1;startSize=26;horizontalStack=0;resizeParent=1;resizeParentMax=0;resizeLast=0;collapsible=1;marginBottom=0;whiteSpace=wrap;html=1;" vertex="1" parent="1">
          <mxGeometry x="330" y="1879" width="160" height="78" as="geometry" />
        </mxCell>
        <mxCell id="cNZdW6esm4BBX129etsO-28" value="" style="text;align=left;verticalAlign=top;spacingLeft=4;spacingRight=4;overflow=hidden;rotatable=0;points=[[0,0.5],[1,0.5]];portConstraint=eastwest;whiteSpace=wrap;html=1;strokeColor=#000000;" vertex="1" parent="cNZdW6esm4BBX129etsO-25">
          <mxGeometry y="26" width="160" height="26" as="geometry" />
        </mxCell>
        <mxCell id="cek7nsQ2RfXW3LOatkp3-121" value="+ execute(int, Token): String" style="text;align=left;verticalAlign=top;spacingLeft=4;spacingRight=4;overflow=hidden;rotatable=0;points=[[0,0.5],[1,0.5]];portConstraint=eastwest;whiteSpace=wrap;html=1;" vertex="1" parent="cNZdW6esm4BBX129etsO-25">
          <mxGeometry y="52" width="160" height="26" as="geometry" />
        </mxCell>
        <mxCell id="cek7nsQ2RfXW3LOatkp3-44" style="edgeStyle=orthogonalEdgeStyle;rounded=0;orthogonalLoop=1;jettySize=auto;html=1;exitX=0;exitY=0.5;exitDx=0;exitDy=0;entryX=1;entryY=0.5;entryDx=0;entryDy=0;dashed=1;endArrow=block;endFill=0;" edge="1" parent="1" source="cNZdW6esm4BBX129etsO-29">
          <mxGeometry relative="1" as="geometry">
            <mxPoint x="230" y="1894" as="targetPoint" />
            <Array as="points">
              <mxPoint x="260" y="2019" />
              <mxPoint x="260" y="1894" />
            </Array>
          </mxGeometry>
        </mxCell>
        <mxCell id="cNZdW6esm4BBX129etsO-29" value="DoNothingAction" style="swimlane;fontStyle=1;align=center;verticalAlign=top;childLayout=stackLayout;horizontal=1;startSize=26;horizontalStack=0;resizeParent=1;resizeParentMax=0;resizeLast=0;collapsible=1;marginBottom=0;whiteSpace=wrap;html=1;" vertex="1" parent="1">
          <mxGeometry x="330" y="1980" width="160" height="78" as="geometry" />
        </mxCell>
        <mxCell id="cNZdW6esm4BBX129etsO-32" value="" style="text;align=left;verticalAlign=top;spacingLeft=4;spacingRight=4;overflow=hidden;rotatable=0;points=[[0,0.5],[1,0.5]];portConstraint=eastwest;whiteSpace=wrap;html=1;strokeColor=#000000;" vertex="1" parent="cNZdW6esm4BBX129etsO-29">
          <mxGeometry y="26" width="160" height="26" as="geometry" />
        </mxCell>
        <mxCell id="cek7nsQ2RfXW3LOatkp3-122" value="+ execute(int, Token): String" style="text;align=left;verticalAlign=top;spacingLeft=4;spacingRight=4;overflow=hidden;rotatable=0;points=[[0,0.5],[1,0.5]];portConstraint=eastwest;whiteSpace=wrap;html=1;" vertex="1" parent="cNZdW6esm4BBX129etsO-29">
          <mxGeometry y="52" width="160" height="26" as="geometry" />
        </mxCell>
        <mxCell id="cNZdW6esm4BBX129etsO-33" value="PlayerInformation" style="swimlane;fontStyle=1;align=center;verticalAlign=top;childLayout=stackLayout;horizontal=1;startSize=26;horizontalStack=0;resizeParent=1;resizeParentMax=0;resizeLast=0;collapsible=1;marginBottom=0;whiteSpace=wrap;html=1;fillColor=#fff2cc;strokeColor=#d6b656;" vertex="1" parent="1">
          <mxGeometry x="600" y="2070" width="250" height="130" as="geometry" />
        </mxCell>
        <mxCell id="cNZdW6esm4BBX129etsO-34" value="- playerSequence: ArrayList&amp;lt;String&amp;gt;&lt;div&gt;- playerInfo: TreeMap&amp;lt;Integer, String&amp;gt;&amp;nbsp;&lt;/div&gt;" style="text;align=left;verticalAlign=top;spacingLeft=4;spacingRight=4;overflow=hidden;rotatable=0;points=[[0,0.5],[1,0.5]];portConstraint=eastwest;whiteSpace=wrap;html=1;fillColor=#fff2cc;strokeColor=#d6b656;" vertex="1" parent="cNZdW6esm4BBX129etsO-33">
          <mxGeometry y="26" width="250" height="44" as="geometry" />
        </mxCell>
        <mxCell id="cNZdW6esm4BBX129etsO-36" value="+ actionPerformed(ActionEvent): void&lt;div&gt;+ promptForAge(String): int&lt;/div&gt;&lt;div&gt;+ promptForTime(): int&lt;/div&gt;" style="text;align=left;verticalAlign=top;spacingLeft=4;spacingRight=4;overflow=hidden;rotatable=0;points=[[0,0.5],[1,0.5]];portConstraint=eastwest;whiteSpace=wrap;html=1;fillColor=#fff2cc;strokeColor=#d6b656;" vertex="1" parent="cNZdW6esm4BBX129etsO-33">
          <mxGeometry y="70" width="250" height="60" as="geometry" />
        </mxCell>
        <mxCell id="cek7nsQ2RfXW3LOatkp3-87" style="edgeStyle=orthogonalEdgeStyle;rounded=0;orthogonalLoop=1;jettySize=auto;html=1;exitX=0.5;exitY=0;exitDx=0;exitDy=0;dashed=1;endArrow=open;endFill=0;" edge="1" parent="1" target="S0c0oYzsWsoxoMVVKnZR-77">
          <mxGeometry relative="1" as="geometry">
            <mxPoint x="135" y="1848" as="sourcePoint" />
            <Array as="points">
              <mxPoint x="135" y="1780" />
              <mxPoint x="30" y="1780" />
              <mxPoint x="30" y="924" />
            </Array>
          </mxGeometry>
        </mxCell>
        <mxCell id="cek7nsQ2RfXW3LOatkp3-88" value="&amp;lt;&amp;lt;uses&amp;gt;&amp;gt;" style="edgeLabel;html=1;align=center;verticalAlign=middle;resizable=0;points=[];" connectable="0" vertex="1" parent="cek7nsQ2RfXW3LOatkp3-87">
          <mxGeometry x="-0.9051" y="-1" relative="1" as="geometry">
            <mxPoint as="offset" />
          </mxGeometry>
        </mxCell>
        <mxCell id="pcp5GQLYtGhU9Is82J_Z-17" style="edgeStyle=orthogonalEdgeStyle;rounded=0;orthogonalLoop=1;jettySize=auto;html=1;exitX=1.01;exitY=0.383;exitDx=0;exitDy=0;entryX=0;entryY=0.25;entryDx=0;entryDy=0;dashed=1;endArrow=open;endFill=0;exitPerimeter=0;" edge="1" parent="1" source="S0c0oYzsWsoxoMVVKnZR-6" target="cNZdW6esm4BBX129etsO-5">
          <mxGeometry relative="1" as="geometry" />
        </mxCell>
        <mxCell id="cek7nsQ2RfXW3LOatkp3-77" value="&amp;lt;&amp;lt;creates&amp;gt;&amp;gt;" style="edgeLabel;html=1;align=center;verticalAlign=middle;resizable=0;points=[];" connectable="0" vertex="1" parent="pcp5GQLYtGhU9Is82J_Z-17">
          <mxGeometry x="-0.6584" relative="1" as="geometry">
            <mxPoint as="offset" />
          </mxGeometry>
        </mxCell>
        <mxCell id="pcp5GQLYtGhU9Is82J_Z-22" style="edgeStyle=orthogonalEdgeStyle;rounded=0;orthogonalLoop=1;jettySize=auto;html=1;exitX=0.5;exitY=0;exitDx=0;exitDy=0;entryX=0.433;entryY=1.026;entryDx=0;entryDy=0;entryPerimeter=0;strokeColor=#000000;" edge="1" parent="1" source="S0c0oYzsWsoxoMVVKnZR-5" target="AQlqDu5M_TYfKXcTvR9i-48">
          <mxGeometry relative="1" as="geometry">
            <Array as="points">
              <mxPoint x="680" y="1636" />
              <mxPoint x="680" y="1590" />
              <mxPoint x="260" y="1590" />
            </Array>
          </mxGeometry>
        </mxCell>
        <mxCell id="pcp5GQLYtGhU9Is82J_Z-23" style="edgeStyle=orthogonalEdgeStyle;rounded=0;orthogonalLoop=1;jettySize=auto;html=1;exitX=0.5;exitY=0;exitDx=0;exitDy=0;entryX=0.444;entryY=1.007;entryDx=0;entryDy=0;entryPerimeter=0;strokeColor=#000000;" edge="1" parent="1" source="S0c0oYzsWsoxoMVVKnZR-5" target="AQlqDu5M_TYfKXcTvR9i-36">
          <mxGeometry relative="1" as="geometry">
            <Array as="points">
              <mxPoint x="740" y="1636" />
              <mxPoint x="740" y="1589" />
              <mxPoint x="621" y="1589" />
            </Array>
          </mxGeometry>
        </mxCell>
        <mxCell id="pcp5GQLYtGhU9Is82J_Z-24" style="edgeStyle=orthogonalEdgeStyle;rounded=0;orthogonalLoop=1;jettySize=auto;html=1;exitX=0.5;exitY=0;exitDx=0;exitDy=0;entryX=0.563;entryY=1.01;entryDx=0;entryDy=0;entryPerimeter=0;strokeColor=#000000;" edge="1" parent="1" source="S0c0oYzsWsoxoMVVKnZR-5" target="AQlqDu5M_TYfKXcTvR9i-32">
          <mxGeometry relative="1" as="geometry" />
        </mxCell>
        <mxCell id="pcp5GQLYtGhU9Is82J_Z-25" style="edgeStyle=orthogonalEdgeStyle;rounded=0;orthogonalLoop=1;jettySize=auto;html=1;exitX=0.5;exitY=0;exitDx=0;exitDy=0;entryX=0.827;entryY=1.03;entryDx=0;entryDy=0;entryPerimeter=0;strokeColor=#000000;" edge="1" parent="1" source="S0c0oYzsWsoxoMVVKnZR-5" target="AQlqDu5M_TYfKXcTvR9i-28">
          <mxGeometry relative="1" as="geometry">
            <Array as="points">
              <mxPoint x="850" y="1636" />
              <mxPoint x="850" y="1602" />
              <mxPoint x="1325" y="1602" />
            </Array>
          </mxGeometry>
        </mxCell>
        <mxCell id="pcp5GQLYtGhU9Is82J_Z-26" value="1" style="text;html=1;align=center;verticalAlign=middle;whiteSpace=wrap;rounded=0;" vertex="1" parent="1">
          <mxGeometry x="760" y="1606" width="60" height="30" as="geometry" />
        </mxCell>
        <mxCell id="pcp5GQLYtGhU9Is82J_Z-27" value="1" style="text;html=1;align=center;verticalAlign=middle;whiteSpace=wrap;rounded=0;strokeColor=none;" vertex="1" parent="1">
          <mxGeometry x="900" y="1542" width="60" height="30" as="geometry" />
        </mxCell>
        <mxCell id="pcp5GQLYtGhU9Is82J_Z-28" value="1" style="text;html=1;align=center;verticalAlign=middle;whiteSpace=wrap;rounded=0;" vertex="1" parent="1">
          <mxGeometry x="840" y="1606" width="60" height="30" as="geometry" />
        </mxCell>
        <mxCell id="pcp5GQLYtGhU9Is82J_Z-29" value="1" style="text;html=1;align=center;verticalAlign=middle;whiteSpace=wrap;rounded=0;" vertex="1" parent="1">
          <mxGeometry x="1270" y="1542" width="60" height="30" as="geometry" />
        </mxCell>
        <mxCell id="pcp5GQLYtGhU9Is82J_Z-30" value="1" style="text;html=1;align=center;verticalAlign=middle;whiteSpace=wrap;rounded=0;strokeColor=none;" vertex="1" parent="1">
          <mxGeometry x="717" y="1606" width="60" height="30" as="geometry" />
        </mxCell>
        <mxCell id="pcp5GQLYtGhU9Is82J_Z-31" value="1" style="text;html=1;align=center;verticalAlign=middle;whiteSpace=wrap;rounded=0;strokeColor=none;" vertex="1" parent="1">
          <mxGeometry x="620" y="1542" width="60" height="30" as="geometry" />
        </mxCell>
        <mxCell id="pcp5GQLYtGhU9Is82J_Z-32" value="1" style="text;html=1;align=center;verticalAlign=middle;whiteSpace=wrap;rounded=0;" vertex="1" parent="1">
          <mxGeometry x="630" y="1606" width="60" height="30" as="geometry" />
        </mxCell>
        <mxCell id="pcp5GQLYtGhU9Is82J_Z-33" value="1" style="text;html=1;align=center;verticalAlign=middle;whiteSpace=wrap;rounded=0;" vertex="1" parent="1">
          <mxGeometry x="255" y="1542" width="60" height="30" as="geometry" />
        </mxCell>
        <mxCell id="cek7nsQ2RfXW3LOatkp3-50" style="edgeStyle=orthogonalEdgeStyle;rounded=0;orthogonalLoop=1;jettySize=auto;html=1;exitX=1;exitY=0.5;exitDx=0;exitDy=0;entryX=1;entryY=0.25;entryDx=0;entryDy=0;dashed=1;endArrow=open;endFill=0;" edge="1" parent="1" source="pcp5GQLYtGhU9Is82J_Z-34" target="cNZdW6esm4BBX129etsO-5">
          <mxGeometry relative="1" as="geometry">
            <Array as="points">
              <mxPoint x="1399" y="2240" />
              <mxPoint x="1560" y="2240" />
              <mxPoint x="1560" y="1630" />
            </Array>
          </mxGeometry>
        </mxCell>
        <mxCell id="cek7nsQ2RfXW3LOatkp3-76" value="&amp;lt;&amp;lt;creates&amp;gt;&amp;gt;" style="edgeLabel;html=1;align=center;verticalAlign=middle;resizable=0;points=[];" connectable="0" vertex="1" parent="cek7nsQ2RfXW3LOatkp3-50">
          <mxGeometry x="0.4064" y="-2" relative="1" as="geometry">
            <mxPoint as="offset" />
          </mxGeometry>
        </mxCell>
        <mxCell id="cek7nsQ2RfXW3LOatkp3-52" style="edgeStyle=orthogonalEdgeStyle;rounded=0;orthogonalLoop=1;jettySize=auto;html=1;exitX=1;exitY=0;exitDx=0;exitDy=0;entryX=1;entryY=0.25;entryDx=0;entryDy=0;dashed=1;endArrow=open;endFill=0;" edge="1" parent="1" source="pcp5GQLYtGhU9Is82J_Z-34" target="cNZdW6esm4BBX129etsO-17">
          <mxGeometry relative="1" as="geometry">
            <Array as="points">
              <mxPoint x="1399" y="2200" />
              <mxPoint x="1480" y="2200" />
              <mxPoint x="1480" y="1898" />
            </Array>
          </mxGeometry>
        </mxCell>
        <mxCell id="cek7nsQ2RfXW3LOatkp3-74" value="&amp;lt;&amp;lt;creates&amp;gt;&amp;gt;" style="edgeLabel;html=1;align=center;verticalAlign=middle;resizable=0;points=[];" connectable="0" vertex="1" parent="cek7nsQ2RfXW3LOatkp3-52">
          <mxGeometry x="0.406" y="1" relative="1" as="geometry">
            <mxPoint x="1" y="-44" as="offset" />
          </mxGeometry>
        </mxCell>
        <mxCell id="pcp5GQLYtGhU9Is82J_Z-34" value="Home" style="swimlane;fontStyle=1;align=center;verticalAlign=top;childLayout=stackLayout;horizontal=1;startSize=26;horizontalStack=0;resizeParent=1;resizeParentMax=0;resizeLast=0;collapsible=1;marginBottom=0;whiteSpace=wrap;html=1;" vertex="1" parent="1">
          <mxGeometry x="1219" y="2146" width="180" height="134" as="geometry">
            <mxRectangle x="1219" y="2066" width="70" height="30" as="alternateBounds" />
          </mxGeometry>
        </mxCell>
        <mxCell id="pcp5GQLYtGhU9Is82J_Z-36" value="" style="text;align=left;verticalAlign=top;spacingLeft=4;spacingRight=4;overflow=hidden;rotatable=0;points=[[0,0.5],[1,0.5]];portConstraint=eastwest;whiteSpace=wrap;html=1;strokeColor=#000000;" vertex="1" parent="pcp5GQLYtGhU9Is82J_Z-34">
          <mxGeometry y="26" width="180" height="34" as="geometry" />
        </mxCell>
        <mxCell id="cek7nsQ2RfXW3LOatkp3-131" value="+ initialisingBackground(): void&lt;div&gt;+ addTitle(): void&lt;br&gt;&lt;div&gt;+ addButton(): void&lt;/div&gt;&lt;div&gt;+ addDragonIcon(): void&lt;/div&gt;&lt;/div&gt;" style="text;align=left;verticalAlign=top;spacingLeft=4;spacingRight=4;overflow=hidden;rotatable=0;points=[[0,0.5],[1,0.5]];portConstraint=eastwest;whiteSpace=wrap;html=1;" vertex="1" parent="pcp5GQLYtGhU9Is82J_Z-34">
          <mxGeometry y="60" width="180" height="74" as="geometry" />
        </mxCell>
        <mxCell id="pcp5GQLYtGhU9Is82J_Z-37" style="edgeStyle=orthogonalEdgeStyle;rounded=0;orthogonalLoop=1;jettySize=auto;html=1;exitX=-0.003;exitY=0.839;exitDx=0;exitDy=0;exitPerimeter=0;dashed=1;endArrow=open;endFill=0;entryX=-0.009;entryY=0.362;entryDx=0;entryDy=0;entryPerimeter=0;" edge="1" parent="1">
          <mxGeometry relative="1" as="geometry">
            <mxPoint x="681.6959999999999" y="1144.3079999999998" as="targetPoint" />
            <Array as="points">
              <mxPoint x="629" y="1763" />
              <mxPoint x="70" y="1763" />
              <mxPoint x="70" y="1205" />
              <mxPoint x="668" y="1205" />
              <mxPoint x="668" y="1144" />
            </Array>
            <mxPoint x="629.094" y="1760.6460000000002" as="sourcePoint" />
          </mxGeometry>
        </mxCell>
        <mxCell id="cek7nsQ2RfXW3LOatkp3-85" value="&amp;lt;&amp;lt;creates&amp;gt;&amp;gt;" style="edgeLabel;html=1;align=center;verticalAlign=middle;resizable=0;points=[];" connectable="0" vertex="1" parent="pcp5GQLYtGhU9Is82J_Z-37">
          <mxGeometry x="-0.0178" y="2" relative="1" as="geometry">
            <mxPoint as="offset" />
          </mxGeometry>
        </mxCell>
        <mxCell id="pcp5GQLYtGhU9Is82J_Z-43" style="edgeStyle=orthogonalEdgeStyle;rounded=0;orthogonalLoop=1;jettySize=auto;html=1;exitX=0.5;exitY=0;exitDx=0;exitDy=0;entryX=0.155;entryY=0.981;entryDx=0;entryDy=0;entryPerimeter=0;" edge="1" parent="1" source="AQlqDu5M_TYfKXcTvR9i-45" target="cek7nsQ2RfXW3LOatkp3-113">
          <mxGeometry relative="1" as="geometry">
            <Array as="points">
              <mxPoint x="285" y="1272" />
              <mxPoint x="724" y="1272" />
            </Array>
          </mxGeometry>
        </mxCell>
        <mxCell id="pcp5GQLYtGhU9Is82J_Z-49" style="edgeStyle=orthogonalEdgeStyle;rounded=0;orthogonalLoop=1;jettySize=auto;html=1;exitX=0.5;exitY=0;exitDx=0;exitDy=0;entryX=0.352;entryY=0.995;entryDx=0;entryDy=0;entryPerimeter=0;" edge="1" parent="1" source="AQlqDu5M_TYfKXcTvR9i-33" target="cek7nsQ2RfXW3LOatkp3-113">
          <mxGeometry relative="1" as="geometry" />
        </mxCell>
        <mxCell id="pcp5GQLYtGhU9Is82J_Z-50" style="edgeStyle=orthogonalEdgeStyle;rounded=0;orthogonalLoop=1;jettySize=auto;html=1;exitX=0.5;exitY=0;exitDx=0;exitDy=0;entryX=0.447;entryY=0.981;entryDx=0;entryDy=0;entryPerimeter=0;" edge="1" parent="1" source="AQlqDu5M_TYfKXcTvR9i-29" target="cek7nsQ2RfXW3LOatkp3-113">
          <mxGeometry relative="1" as="geometry" />
        </mxCell>
        <mxCell id="pcp5GQLYtGhU9Is82J_Z-56" style="edgeStyle=orthogonalEdgeStyle;rounded=0;orthogonalLoop=1;jettySize=auto;html=1;exitX=0.5;exitY=0;exitDx=0;exitDy=0;entryX=0.645;entryY=0.976;entryDx=0;entryDy=0;entryPerimeter=0;" edge="1" parent="1" source="AQlqDu5M_TYfKXcTvR9i-25" target="cek7nsQ2RfXW3LOatkp3-113">
          <mxGeometry relative="1" as="geometry">
            <Array as="points">
              <mxPoint x="1240" y="1272" />
              <mxPoint x="849" y="1272" />
            </Array>
            <mxPoint x="850" y="1220" as="targetPoint" />
          </mxGeometry>
        </mxCell>
        <mxCell id="pcp5GQLYtGhU9Is82J_Z-57" value="1" style="text;html=1;align=center;verticalAlign=middle;whiteSpace=wrap;rounded=0;" vertex="1" parent="1">
          <mxGeometry x="830" y="1210" width="60" height="30" as="geometry" />
        </mxCell>
        <mxCell id="pcp5GQLYtGhU9Is82J_Z-59" value="1" style="text;html=1;align=center;verticalAlign=middle;whiteSpace=wrap;rounded=0;" vertex="1" parent="1">
          <mxGeometry x="240" y="1312" width="60" height="30" as="geometry" />
        </mxCell>
        <mxCell id="pcp5GQLYtGhU9Is82J_Z-60" value="1" style="text;html=1;align=center;verticalAlign=middle;whiteSpace=wrap;rounded=0;" vertex="1" parent="1">
          <mxGeometry x="880" y="1322" width="60" height="30" as="geometry" />
        </mxCell>
        <mxCell id="pcp5GQLYtGhU9Is82J_Z-61" value="1" style="text;html=1;align=center;verticalAlign=middle;whiteSpace=wrap;rounded=0;" vertex="1" parent="1">
          <mxGeometry x="680" y="1210" width="60" height="30" as="geometry" />
        </mxCell>
        <mxCell id="pcp5GQLYtGhU9Is82J_Z-62" value="1" style="text;html=1;align=center;verticalAlign=middle;whiteSpace=wrap;rounded=0;" vertex="1" parent="1">
          <mxGeometry x="630" y="1322" width="60" height="30" as="geometry" />
        </mxCell>
        <mxCell id="pcp5GQLYtGhU9Is82J_Z-63" value="1" style="text;html=1;align=center;verticalAlign=middle;whiteSpace=wrap;rounded=0;" vertex="1" parent="1">
          <mxGeometry x="777" y="1210" width="60" height="30" as="geometry" />
        </mxCell>
        <mxCell id="pcp5GQLYtGhU9Is82J_Z-64" value="1" style="text;html=1;align=center;verticalAlign=middle;whiteSpace=wrap;rounded=0;" vertex="1" parent="1">
          <mxGeometry x="735" y="1210" width="60" height="30" as="geometry" />
        </mxCell>
        <mxCell id="pcp5GQLYtGhU9Is82J_Z-65" value="1" style="text;html=1;align=center;verticalAlign=middle;whiteSpace=wrap;rounded=0;" vertex="1" parent="1">
          <mxGeometry x="1230" y="1322" width="60" height="30" as="geometry" />
        </mxCell>
        <mxCell id="pcp5GQLYtGhU9Is82J_Z-73" style="edgeStyle=orthogonalEdgeStyle;rounded=0;orthogonalLoop=1;jettySize=auto;html=1;strokeColor=#000000;" edge="1" parent="1" source="AQlqDu5M_TYfKXcTvR9i-45" target="S0c0oYzsWsoxoMVVKnZR-77">
          <mxGeometry relative="1" as="geometry">
            <mxPoint x="180.00263157894727" y="1352" as="sourcePoint" />
            <mxPoint x="180" y="1062" as="targetPoint" />
            <Array as="points">
              <mxPoint x="180" y="1162" />
              <mxPoint x="180" y="1162" />
            </Array>
          </mxGeometry>
        </mxCell>
        <mxCell id="pcp5GQLYtGhU9Is82J_Z-74" value="1" style="text;html=1;align=center;verticalAlign=middle;whiteSpace=wrap;rounded=0;" vertex="1" parent="1">
          <mxGeometry x="130" y="1322" width="60" height="30" as="geometry" />
        </mxCell>
        <mxCell id="pcp5GQLYtGhU9Is82J_Z-75" value="2..4" style="text;html=1;align=center;verticalAlign=middle;whiteSpace=wrap;rounded=0;" vertex="1" parent="1">
          <mxGeometry x="230" y="1173" width="60" height="30" as="geometry" />
        </mxCell>
        <mxCell id="cek7nsQ2RfXW3LOatkp3-1" style="edgeStyle=orthogonalEdgeStyle;rounded=0;orthogonalLoop=1;jettySize=auto;html=1;entryX=0.537;entryY=1.061;entryDx=0;entryDy=0;entryPerimeter=0;exitX=0.274;exitY=0.014;exitDx=0;exitDy=0;exitPerimeter=0;strokeColor=#000000;" edge="1" parent="1" source="AQlqDu5M_TYfKXcTvR9i-33" target="AQlqDu5M_TYfKXcTvR9i-24">
          <mxGeometry relative="1" as="geometry">
            <Array as="points">
              <mxPoint x="578" y="962" />
              <mxPoint x="748" y="962" />
            </Array>
          </mxGeometry>
        </mxCell>
        <mxCell id="cek7nsQ2RfXW3LOatkp3-2" value="1" style="text;html=1;align=center;verticalAlign=middle;whiteSpace=wrap;rounded=0;" vertex="1" parent="1">
          <mxGeometry x="747" y="904" width="60" height="30" as="geometry" />
        </mxCell>
        <mxCell id="cek7nsQ2RfXW3LOatkp3-3" value="1" style="text;html=1;align=center;verticalAlign=middle;whiteSpace=wrap;rounded=0;" vertex="1" parent="1">
          <mxGeometry x="530" y="1322" width="60" height="30" as="geometry" />
        </mxCell>
        <mxCell id="cek7nsQ2RfXW3LOatkp3-4" style="edgeStyle=orthogonalEdgeStyle;rounded=0;orthogonalLoop=1;jettySize=auto;html=1;exitX=0.873;exitY=-0.008;exitDx=0;exitDy=0;entryX=0.488;entryY=1;entryDx=0;entryDy=0;entryPerimeter=0;exitPerimeter=0;strokeColor=#000000;" edge="1" parent="1" source="AQlqDu5M_TYfKXcTvR9i-29" target="S0c0oYzsWsoxoMVVKnZR-97">
          <mxGeometry relative="1" as="geometry" />
        </mxCell>
        <mxCell id="cek7nsQ2RfXW3LOatkp3-5" value="1" style="text;html=1;align=center;verticalAlign=middle;whiteSpace=wrap;rounded=0;" vertex="1" parent="1">
          <mxGeometry x="990" y="1322" width="60" height="30" as="geometry" />
        </mxCell>
        <mxCell id="cek7nsQ2RfXW3LOatkp3-6" value="0..*" style="text;html=1;align=center;verticalAlign=middle;whiteSpace=wrap;rounded=0;" vertex="1" parent="1">
          <mxGeometry x="980" y="1010" width="60" height="30" as="geometry" />
        </mxCell>
        <mxCell id="cek7nsQ2RfXW3LOatkp3-8" style="edgeStyle=orthogonalEdgeStyle;rounded=0;orthogonalLoop=1;jettySize=auto;html=1;exitX=0.25;exitY=1;exitDx=0;exitDy=0;entryX=0.58;entryY=1.004;entryDx=0;entryDy=0;entryPerimeter=0;strokeColor=#000000;" edge="1" parent="1" source="cek7nsQ2RfXW3LOatkp3-9" target="S0c0oYzsWsoxoMVVKnZR-49">
          <mxGeometry relative="1" as="geometry">
            <Array as="points">
              <mxPoint x="1345" y="1352" />
              <mxPoint x="1345" y="1177" />
            </Array>
          </mxGeometry>
        </mxCell>
        <mxCell id="cek7nsQ2RfXW3LOatkp3-9" value="1" style="text;html=1;align=center;verticalAlign=middle;whiteSpace=wrap;rounded=0;" vertex="1" parent="1">
          <mxGeometry x="1324" y="1322" width="60" height="30" as="geometry" />
        </mxCell>
        <mxCell id="cek7nsQ2RfXW3LOatkp3-10" value="4" style="text;html=1;align=center;verticalAlign=middle;whiteSpace=wrap;rounded=0;" vertex="1" parent="1">
          <mxGeometry x="1330" y="1002" width="60" height="30" as="geometry" />
        </mxCell>
        <mxCell id="cek7nsQ2RfXW3LOatkp3-29" value="1" style="text;html=1;align=center;verticalAlign=middle;whiteSpace=wrap;rounded=0;" vertex="1" parent="1">
          <mxGeometry x="510" y="36" width="60" height="30" as="geometry" />
        </mxCell>
        <mxCell id="cek7nsQ2RfXW3LOatkp3-30" value="1" style="text;html=1;align=center;verticalAlign=middle;whiteSpace=wrap;rounded=0;" vertex="1" parent="1">
          <mxGeometry x="1430" y="833" width="60" height="30" as="geometry" />
        </mxCell>
        <mxCell id="cek7nsQ2RfXW3LOatkp3-31" value="1" style="text;html=1;align=center;verticalAlign=middle;whiteSpace=wrap;rounded=0;" vertex="1" parent="1">
          <mxGeometry x="630" y="92" width="60" height="30" as="geometry" />
        </mxCell>
        <mxCell id="cek7nsQ2RfXW3LOatkp3-32" value="1" style="text;html=1;align=center;verticalAlign=middle;whiteSpace=wrap;rounded=0;" vertex="1" parent="1">
          <mxGeometry x="1140" y="902" width="60" height="30" as="geometry" />
        </mxCell>
        <mxCell id="cek7nsQ2RfXW3LOatkp3-35" value="1" style="endArrow=open;html=1;endSize=12;startArrow=diamondThin;startSize=14;startFill=0;edgeStyle=orthogonalEdgeStyle;align=left;verticalAlign=bottom;rounded=0;exitX=-0.008;exitY=-0.01;exitDx=0;exitDy=0;exitPerimeter=0;" edge="1" parent="1">
          <mxGeometry x="-0.959" relative="1" as="geometry">
            <mxPoint x="72.03199999999998" y="889.98" as="sourcePoint" />
            <mxPoint x="40" y="1893" as="targetPoint" />
            <Array as="points">
              <mxPoint x="50" y="890" />
              <mxPoint x="50" y="889" />
              <mxPoint x="20" y="889" />
              <mxPoint x="20" y="1893" />
            </Array>
            <mxPoint as="offset" />
          </mxGeometry>
        </mxCell>
        <mxCell id="cek7nsQ2RfXW3LOatkp3-38" style="edgeStyle=orthogonalEdgeStyle;rounded=0;orthogonalLoop=1;jettySize=auto;html=1;exitX=0;exitY=0.5;exitDx=0;exitDy=0;dashed=1;endArrow=none;endFill=0;" edge="1" parent="1">
          <mxGeometry relative="1" as="geometry">
            <mxPoint x="330" y="1808.9999999999998" as="sourcePoint" />
            <mxPoint x="280" y="1900" as="targetPoint" />
            <Array as="points">
              <mxPoint x="260" y="1809" />
              <mxPoint x="260" y="1900" />
            </Array>
          </mxGeometry>
        </mxCell>
        <mxCell id="cek7nsQ2RfXW3LOatkp3-43" style="edgeStyle=orthogonalEdgeStyle;rounded=0;orthogonalLoop=1;jettySize=auto;html=1;dashed=1;endArrow=none;endFill=0;endSize=6;" edge="1" parent="1">
          <mxGeometry relative="1" as="geometry">
            <mxPoint x="330" y="1900" as="sourcePoint" />
            <mxPoint x="280" y="1900" as="targetPoint" />
            <Array as="points">
              <mxPoint x="330" y="1900" />
            </Array>
          </mxGeometry>
        </mxCell>
        <mxCell id="cek7nsQ2RfXW3LOatkp3-46" style="edgeStyle=orthogonalEdgeStyle;rounded=0;orthogonalLoop=1;jettySize=auto;html=1;exitX=0;exitY=0.5;exitDx=0;exitDy=0;endArrow=open;endFill=0;dashed=1;" edge="1" parent="1" target="cNZdW6esm4BBX129etsO-28">
          <mxGeometry relative="1" as="geometry">
            <mxPoint x="629.9999999999998" y="1803" as="sourcePoint" />
            <Array as="points">
              <mxPoint x="630" y="1810" />
              <mxPoint x="560" y="1810" />
              <mxPoint x="560" y="1905" />
            </Array>
          </mxGeometry>
        </mxCell>
        <mxCell id="cek7nsQ2RfXW3LOatkp3-83" value="&amp;lt;&amp;lt;creates&amp;gt;&amp;gt;" style="edgeLabel;html=1;align=center;verticalAlign=middle;resizable=0;points=[];" connectable="0" vertex="1" parent="cek7nsQ2RfXW3LOatkp3-46">
          <mxGeometry x="-0.0035" y="2" relative="1" as="geometry">
            <mxPoint as="offset" />
          </mxGeometry>
        </mxCell>
        <mxCell id="cek7nsQ2RfXW3LOatkp3-47" style="edgeStyle=orthogonalEdgeStyle;rounded=0;orthogonalLoop=1;jettySize=auto;html=1;exitX=0;exitY=0.5;exitDx=0;exitDy=0;entryX=1;entryY=0.5;entryDx=0;entryDy=0;dashed=1;endArrow=open;endFill=0;" edge="1" parent="1" target="cNZdW6esm4BBX129etsO-29">
          <mxGeometry relative="1" as="geometry">
            <mxPoint x="629.9999999999998" y="1803" as="sourcePoint" />
            <Array as="points">
              <mxPoint x="630" y="1829" />
              <mxPoint x="600" y="1829" />
              <mxPoint x="600" y="2019" />
            </Array>
          </mxGeometry>
        </mxCell>
        <mxCell id="cek7nsQ2RfXW3LOatkp3-82" value="&amp;lt;&amp;lt;creates&amp;gt;&amp;gt;" style="edgeLabel;html=1;align=center;verticalAlign=middle;resizable=0;points=[];" connectable="0" vertex="1" parent="cek7nsQ2RfXW3LOatkp3-47">
          <mxGeometry x="-0.0053" y="-1" relative="1" as="geometry">
            <mxPoint as="offset" />
          </mxGeometry>
        </mxCell>
        <mxCell id="cek7nsQ2RfXW3LOatkp3-51" style="edgeStyle=orthogonalEdgeStyle;rounded=0;orthogonalLoop=1;jettySize=auto;html=1;exitX=1;exitY=0.5;exitDx=0;exitDy=0;entryX=1;entryY=0.25;entryDx=0;entryDy=0;dashed=1;endArrow=open;endFill=0;" edge="1" parent="1" source="pcp5GQLYtGhU9Is82J_Z-36" target="cNZdW6esm4BBX129etsO-13">
          <mxGeometry relative="1" as="geometry">
            <Array as="points">
              <mxPoint x="1399" y="2220" />
              <mxPoint x="1520" y="2220" />
              <mxPoint x="1520" y="1808" />
            </Array>
          </mxGeometry>
        </mxCell>
        <mxCell id="cek7nsQ2RfXW3LOatkp3-75" value="&amp;lt;&amp;lt;creates&amp;gt;&amp;gt;" style="edgeLabel;html=1;align=center;verticalAlign=middle;resizable=0;points=[];" connectable="0" vertex="1" parent="cek7nsQ2RfXW3LOatkp3-51">
          <mxGeometry x="0.3866" y="-2" relative="1" as="geometry">
            <mxPoint x="-2" y="-15" as="offset" />
          </mxGeometry>
        </mxCell>
        <mxCell id="cek7nsQ2RfXW3LOatkp3-54" style="edgeStyle=orthogonalEdgeStyle;rounded=0;orthogonalLoop=1;jettySize=auto;html=1;dashed=1;endArrow=open;endFill=0;entryX=0.479;entryY=1.009;entryDx=0;entryDy=0;entryPerimeter=0;" edge="1" parent="1" target="cNZdW6esm4BBX129etsO-36">
          <mxGeometry relative="1" as="geometry">
            <mxPoint x="1419" y="1650" as="sourcePoint" />
            <Array as="points">
              <mxPoint x="1419" y="1648" />
              <mxPoint x="1410" y="1648" />
              <mxPoint x="1410" y="1650" />
              <mxPoint x="1600" y="1650" />
              <mxPoint x="1600" y="2320" />
              <mxPoint x="720" y="2320" />
              <mxPoint x="720" y="2201" />
            </Array>
            <mxPoint x="770" y="2230" as="targetPoint" />
          </mxGeometry>
        </mxCell>
        <mxCell id="cek7nsQ2RfXW3LOatkp3-72" value="&amp;lt;&amp;lt;creates&amp;gt;&amp;gt;" style="edgeLabel;html=1;align=center;verticalAlign=middle;resizable=0;points=[];" connectable="0" vertex="1" parent="cek7nsQ2RfXW3LOatkp3-54">
          <mxGeometry x="0.2623" relative="1" as="geometry">
            <mxPoint as="offset" />
          </mxGeometry>
        </mxCell>
        <mxCell id="cek7nsQ2RfXW3LOatkp3-55" style="edgeStyle=orthogonalEdgeStyle;rounded=0;orthogonalLoop=1;jettySize=auto;html=1;dashed=1;endArrow=open;endFill=0;exitX=0.25;exitY=0;exitDx=0;exitDy=0;entryX=0.111;entryY=1.003;entryDx=0;entryDy=0;entryPerimeter=0;" edge="1" parent="1" source="cNZdW6esm4BBX129etsO-33" target="3YPCHv7cXx526DVpAFdT-9">
          <mxGeometry relative="1" as="geometry">
            <mxPoint x="759.0107526881719" y="1916" as="targetPoint" />
            <Array as="points">
              <mxPoint x="663" y="2040" />
              <mxPoint x="664" y="2040" />
            </Array>
            <mxPoint x="754.9999999999999" y="2070" as="sourcePoint" />
          </mxGeometry>
        </mxCell>
        <mxCell id="cek7nsQ2RfXW3LOatkp3-81" value="&amp;lt;&amp;lt;creates&amp;gt;&amp;gt;" style="edgeLabel;html=1;align=center;verticalAlign=middle;resizable=0;points=[];" connectable="0" vertex="1" parent="cek7nsQ2RfXW3LOatkp3-55">
          <mxGeometry x="0.3313" y="3" relative="1" as="geometry">
            <mxPoint y="28" as="offset" />
          </mxGeometry>
        </mxCell>
        <mxCell id="cek7nsQ2RfXW3LOatkp3-56" style="edgeStyle=orthogonalEdgeStyle;rounded=0;orthogonalLoop=1;jettySize=auto;html=1;entryX=0.549;entryY=0.994;entryDx=0;entryDy=0;entryPerimeter=0;dashed=1;endArrow=open;endFill=0;strokeColor=#000000;" edge="1" parent="1" target="cek7nsQ2RfXW3LOatkp3-118">
          <mxGeometry relative="1" as="geometry">
            <mxPoint x="850" y="840" as="sourcePoint" />
            <mxPoint x="1219.8360000000002" y="222" as="targetPoint" />
            <Array as="points">
              <mxPoint x="870" y="840" />
              <mxPoint x="870" y="1090" />
              <mxPoint x="1580" y="1090" />
              <mxPoint x="1580" y="280" />
              <mxPoint x="1220" y="280" />
            </Array>
          </mxGeometry>
        </mxCell>
        <mxCell id="cek7nsQ2RfXW3LOatkp3-69" value="&amp;lt;&amp;lt;uses&amp;gt;&amp;gt;" style="edgeLabel;html=1;align=center;verticalAlign=middle;resizable=0;points=[];" connectable="0" vertex="1" parent="cek7nsQ2RfXW3LOatkp3-56">
          <mxGeometry x="0.0466" y="2" relative="1" as="geometry">
            <mxPoint as="offset" />
          </mxGeometry>
        </mxCell>
        <mxCell id="cek7nsQ2RfXW3LOatkp3-62" style="edgeStyle=orthogonalEdgeStyle;rounded=0;orthogonalLoop=1;jettySize=auto;html=1;entryX=0.999;entryY=0.925;entryDx=0;entryDy=0;entryPerimeter=0;exitX=0.694;exitY=1.042;exitDx=0;exitDy=0;exitPerimeter=0;dashed=1;endArrow=open;endFill=0;strokeColor=#000000;" edge="1" parent="1" source="AQlqDu5M_TYfKXcTvR9i-48" target="cek7nsQ2RfXW3LOatkp3-118">
          <mxGeometry relative="1" as="geometry">
            <mxPoint x="1299.9160000000002" y="222" as="targetPoint" />
            <Array as="points">
              <mxPoint x="357" y="1580" />
              <mxPoint x="1620" y="1580" />
              <mxPoint x="1620" y="240" />
              <mxPoint x="1410" y="240" />
              <mxPoint x="1410" y="238" />
            </Array>
          </mxGeometry>
        </mxCell>
        <mxCell id="cek7nsQ2RfXW3LOatkp3-71" value="&amp;lt;&amp;lt;uses&amp;gt;&amp;gt;" style="edgeLabel;html=1;align=center;verticalAlign=middle;resizable=0;points=[];" connectable="0" vertex="1" parent="cek7nsQ2RfXW3LOatkp3-62">
          <mxGeometry x="0.201" relative="1" as="geometry">
            <mxPoint as="offset" />
          </mxGeometry>
        </mxCell>
        <mxCell id="cek7nsQ2RfXW3LOatkp3-63" style="edgeStyle=orthogonalEdgeStyle;rounded=0;orthogonalLoop=1;jettySize=auto;html=1;exitX=1;exitY=0;exitDx=0;exitDy=0;entryX=0.476;entryY=0.978;entryDx=0;entryDy=0;entryPerimeter=0;dashed=1;endArrow=open;endFill=0;strokeColor=#000000;" edge="1" parent="1" source="pcp5GQLYtGhU9Is82J_Z-27" target="cek7nsQ2RfXW3LOatkp3-118">
          <mxGeometry relative="1" as="geometry">
            <mxPoint x="1193.9920000000002" y="223.76" as="targetPoint" />
            <Array as="points">
              <mxPoint x="960" y="1570" />
              <mxPoint x="1600" y="1570" />
              <mxPoint x="1600" y="300" />
              <mxPoint x="1193" y="300" />
            </Array>
          </mxGeometry>
        </mxCell>
        <mxCell id="cek7nsQ2RfXW3LOatkp3-70" value="&amp;lt;&amp;lt;uses&amp;gt;&amp;gt;" style="edgeLabel;html=1;align=center;verticalAlign=middle;resizable=0;points=[];" connectable="0" vertex="1" parent="cek7nsQ2RfXW3LOatkp3-63">
          <mxGeometry x="0.0367" y="-1" relative="1" as="geometry">
            <mxPoint as="offset" />
          </mxGeometry>
        </mxCell>
        <mxCell id="cek7nsQ2RfXW3LOatkp3-64" style="edgeStyle=orthogonalEdgeStyle;rounded=0;orthogonalLoop=1;jettySize=auto;html=1;exitX=1;exitY=0.5;exitDx=0;exitDy=0;entryX=0.654;entryY=0.998;entryDx=0;entryDy=0;entryPerimeter=0;dashed=1;endArrow=open;endFill=0;strokeColor=#000000;" edge="1" parent="1" source="AQlqDu5M_TYfKXcTvR9i-28" target="cek7nsQ2RfXW3LOatkp3-118">
          <mxGeometry relative="1" as="geometry">
            <mxPoint x="1258.784" y="220.72000000000003" as="targetPoint" />
            <Array as="points">
              <mxPoint x="1370" y="1491" />
              <mxPoint x="1560" y="1491" />
              <mxPoint x="1560" y="260" />
              <mxPoint x="1258" y="260" />
            </Array>
          </mxGeometry>
        </mxCell>
        <mxCell id="cek7nsQ2RfXW3LOatkp3-67" value="&amp;lt;&amp;lt;uses&amp;gt;&amp;gt;" style="edgeLabel;html=1;align=center;verticalAlign=middle;resizable=0;points=[];" connectable="0" vertex="1" parent="cek7nsQ2RfXW3LOatkp3-64">
          <mxGeometry x="-0.0279" y="4" relative="1" as="geometry">
            <mxPoint as="offset" />
          </mxGeometry>
        </mxCell>
        <mxCell id="cek7nsQ2RfXW3LOatkp3-65" value="Remove classes" style="html=1;whiteSpace=wrap;fillColor=#f8cecc;strokeColor=#b85450;" vertex="1" parent="1">
          <mxGeometry x="10" y="26" width="110" height="50" as="geometry" />
        </mxCell>
        <mxCell id="cek7nsQ2RfXW3LOatkp3-93" value="color code" style="text;align=center;fontStyle=1;verticalAlign=middle;spacingLeft=3;spacingRight=3;strokeColor=none;rotatable=0;points=[[0,0.5],[1,0.5]];portConstraint=eastwest;html=1;" vertex="1" parent="1">
          <mxGeometry x="24" width="80" height="26" as="geometry" />
        </mxCell>
        <mxCell id="cek7nsQ2RfXW3LOatkp3-94" value="New classes" style="html=1;whiteSpace=wrap;fillColor=#d5e8d4;strokeColor=#82b366;" vertex="1" parent="1">
          <mxGeometry x="10" y="146" width="110" height="50" as="geometry" />
        </mxCell>
        <mxCell id="cek7nsQ2RfXW3LOatkp3-95" value="Existing classes" style="html=1;whiteSpace=wrap;" vertex="1" parent="1">
          <mxGeometry x="10" y="86" width="110" height="50" as="geometry" />
        </mxCell>
        <mxCell id="cek7nsQ2RfXW3LOatkp3-96" value="Revised classes" style="html=1;whiteSpace=wrap;fillColor=#fff2cc;strokeColor=#d6b656;" vertex="1" parent="1">
          <mxGeometry x="10" y="206" width="110" height="50" as="geometry" />
        </mxCell>
        <mxCell id="cek7nsQ2RfXW3LOatkp3-97" value="line relationship&lt;div&gt;changes between&amp;nbsp;&lt;/div&gt;&lt;div&gt;existing classes&lt;/div&gt;" style="text;align=center;fontStyle=1;verticalAlign=middle;spacingLeft=3;spacingRight=3;strokeColor=none;rotatable=0;points=[[0,0.5],[1,0.5]];portConstraint=eastwest;html=1;" vertex="1" parent="1">
          <mxGeometry x="20" y="280" width="80" height="26" as="geometry" />
        </mxCell>
        <mxCell id="cek7nsQ2RfXW3LOatkp3-98" value="" style="rounded=0;whiteSpace=wrap;html=1;" vertex="1" parent="1">
          <mxGeometry x="9" y="320" width="110" height="180" as="geometry" />
        </mxCell>
        <mxCell id="cek7nsQ2RfXW3LOatkp3-99" value="" style="endArrow=open;endSize=12;dashed=1;html=1;rounded=0;fillColor=#f8cecc;strokeColor=#FF3333;" edge="1" parent="1">
          <mxGeometry width="160" relative="1" as="geometry">
            <mxPoint x="20" y="360" as="sourcePoint" />
            <mxPoint x="100" y="360" as="targetPoint" />
          </mxGeometry>
        </mxCell>
        <mxCell id="cek7nsQ2RfXW3LOatkp3-101" value="" style="endArrow=open;endFill=1;endSize=12;html=1;rounded=0;fillColor=#f8cecc;strokeColor=#FF3333;" edge="1" parent="1">
          <mxGeometry width="160" relative="1" as="geometry">
            <mxPoint x="20" y="390" as="sourcePoint" />
            <mxPoint x="100" y="390" as="targetPoint" />
          </mxGeometry>
        </mxCell>
        <mxCell id="cek7nsQ2RfXW3LOatkp3-102" value="" style="endArrow=block;dashed=1;endFill=0;endSize=12;html=1;rounded=0;fillColor=#f8cecc;strokeColor=#FF3333;" edge="1" parent="1">
          <mxGeometry width="160" relative="1" as="geometry">
            <mxPoint x="20" y="420" as="sourcePoint" />
            <mxPoint x="100" y="420" as="targetPoint" />
          </mxGeometry>
        </mxCell>
        <mxCell id="cek7nsQ2RfXW3LOatkp3-103" value="&lt;font color=&quot;#ff3333&quot;&gt;Extends&lt;/font&gt;" style="endArrow=block;endSize=16;endFill=0;html=1;rounded=0;fillColor=#f8cecc;strokeColor=#FF3333;" edge="1" parent="1">
          <mxGeometry width="160" relative="1" as="geometry">
            <mxPoint x="20" y="450" as="sourcePoint" />
            <mxPoint x="100" y="450" as="targetPoint" />
          </mxGeometry>
        </mxCell>
        <mxCell id="cek7nsQ2RfXW3LOatkp3-104" value="&lt;font color=&quot;#ff3333&quot;&gt;1&lt;/font&gt;" style="endArrow=open;html=1;endSize=12;startArrow=diamondThin;startSize=14;startFill=0;edgeStyle=orthogonalEdgeStyle;align=left;verticalAlign=bottom;rounded=0;fillColor=#f8cecc;strokeColor=#FF3333;" edge="1" parent="1">
          <mxGeometry x="-1" y="3" relative="1" as="geometry">
            <mxPoint x="20" y="480" as="sourcePoint" />
            <mxPoint x="100" y="480" as="targetPoint" />
          </mxGeometry>
        </mxCell>
        <mxCell id="cek7nsQ2RfXW3LOatkp3-106" style="edgeStyle=orthogonalEdgeStyle;rounded=0;orthogonalLoop=1;jettySize=auto;html=1;entryX=1.009;entryY=0.61;entryDx=0;entryDy=0;entryPerimeter=0;" edge="1" parent="1" source="S0c0oYzsWsoxoMVVKnZR-77">
          <mxGeometry relative="1" as="geometry">
            <mxPoint x="1251.71" y="583.5" as="targetPoint" />
            <Array as="points">
              <mxPoint x="1490" y="1040" />
              <mxPoint x="1490" y="584" />
            </Array>
          </mxGeometry>
        </mxCell>
        <mxCell id="cek7nsQ2RfXW3LOatkp3-107" value="1" style="text;html=1;align=center;verticalAlign=middle;whiteSpace=wrap;rounded=0;" vertex="1" parent="1">
          <mxGeometry x="1240" y="582" width="60" height="30" as="geometry" />
        </mxCell>
        <mxCell id="cek7nsQ2RfXW3LOatkp3-108" value="1" style="text;html=1;align=center;verticalAlign=middle;whiteSpace=wrap;rounded=0;" vertex="1" parent="1">
          <mxGeometry x="310" y="1012" width="60" height="30" as="geometry" />
        </mxCell>
        <mxCell id="cek7nsQ2RfXW3LOatkp3-115" value="AnimalFactory" style="swimlane;fontStyle=1;align=center;verticalAlign=top;childLayout=stackLayout;horizontal=1;startSize=24;horizontalStack=0;resizeParent=1;resizeParentMax=0;resizeLast=0;collapsible=1;marginBottom=0;whiteSpace=wrap;html=1;" vertex="1" parent="1">
          <mxGeometry x="1020" y="97" width="364" height="148" as="geometry" />
        </mxCell>
        <mxCell id="cek7nsQ2RfXW3LOatkp3-116" value="&amp;nbsp;" style="text;strokeColor=none;fillColor=none;align=left;verticalAlign=top;spacingLeft=4;spacingRight=4;overflow=hidden;rotatable=0;points=[[0,0.5],[1,0.5]];portConstraint=eastwest;whiteSpace=wrap;html=1;" vertex="1" parent="cek7nsQ2RfXW3LOatkp3-115">
          <mxGeometry y="24" width="364" height="26" as="geometry" />
        </mxCell>
        <mxCell id="cek7nsQ2RfXW3LOatkp3-117" value="" style="line;strokeWidth=1;fillColor=none;align=left;verticalAlign=middle;spacingTop=-1;spacingLeft=3;spacingRight=3;rotatable=0;labelPosition=right;points=[];portConstraint=eastwest;strokeColor=inherit;" vertex="1" parent="cek7nsQ2RfXW3LOatkp3-115">
          <mxGeometry y="50" width="364" height="8" as="geometry" />
        </mxCell>
        <mxCell id="cek7nsQ2RfXW3LOatkp3-118" value="+&amp;nbsp;&lt;font face=&quot;Helvetica&quot;&gt;&lt;span style=&quot;font-size: 9.8pt;&quot;&gt;createChitCardAnimal(): ArrayList&amp;lt;Animal&amp;gt;&amp;nbsp;&lt;/span&gt;&lt;/font&gt;&lt;div&gt;&lt;font face=&quot;Helvetica&quot;&gt;&lt;span style=&quot;font-size: 9.8pt;&quot;&gt;+&amp;nbsp;&lt;/span&gt;&lt;/font&gt;&lt;span style=&quot;font-size: 9.8pt; background-color: initial;&quot;&gt;createVolcanoCardAnimal(int, int): ArrayList&amp;lt;Animal&amp;gt;&amp;nbsp;&lt;/span&gt;&lt;/div&gt;&lt;div&gt;&lt;font face=&quot;Helvetica&quot;&gt;&lt;span style=&quot;font-size: 9.8pt;&quot;&gt;+&amp;nbsp;&lt;/span&gt;&lt;/font&gt;&lt;span style=&quot;font-size: 9.8pt; background-color: initial;&quot;&gt;createCaveAnimal(): ArrayList&amp;lt;Animal&amp;gt;&amp;nbsp;&lt;/span&gt;&lt;/div&gt;&lt;div&gt;&lt;font face=&quot;Helvetica&quot;&gt;&lt;span style=&quot;font-size: 9.8pt;&quot;&gt;+&amp;nbsp;&lt;/span&gt;&lt;/font&gt;&lt;span style=&quot;font-size: 9.8pt; background-color: initial;&quot;&gt;createTokenAnimal(): ArrayList&amp;lt;Animal&amp;gt;&amp;nbsp;&lt;/span&gt;&lt;/div&gt;" style="text;strokeColor=none;fillColor=none;align=left;verticalAlign=top;spacingLeft=4;spacingRight=4;overflow=hidden;rotatable=0;points=[[0,0.5],[1,0.5]];portConstraint=eastwest;whiteSpace=wrap;html=1;" vertex="1" parent="cek7nsQ2RfXW3LOatkp3-115">
          <mxGeometry y="58" width="364" height="90" as="geometry" />
        </mxCell>
        <mxCell id="cek7nsQ2RfXW3LOatkp3-119" value="&lt;p style=&quot;margin:0px;margin-top:4px;text-align:center;&quot;&gt;&lt;i&gt;&amp;lt;&amp;lt;Interface&amp;gt;&amp;gt;&lt;/i&gt;&lt;br&gt;&lt;b&gt;Animal&lt;/b&gt;&lt;br&gt;&lt;/p&gt;&lt;hr size=&quot;1&quot; style=&quot;border-style:solid;&quot;&gt;&lt;p style=&quot;margin:0px;margin-left:4px;&quot;&gt;&lt;br&gt;&lt;/p&gt;&lt;hr size=&quot;1&quot; style=&quot;border-style:solid;&quot;&gt;&lt;p style=&quot;margin: 0px 0px 0px 4px;&quot;&gt;&lt;span style=&quot;background-color: initial;&quot;&gt;+ getMaxVal(): int&lt;/span&gt;&lt;br&gt;&lt;/p&gt;&lt;p style=&quot;margin: 0px 0px 0px 4px;&quot;&gt;+ getName(): String&lt;/p&gt;&lt;p style=&quot;margin: 0px 0px 0px 4px;&quot;&gt;+ isSpecial(): boolean&lt;/p&gt;" style="verticalAlign=top;align=left;overflow=fill;html=1;whiteSpace=wrap;fillColor=#fff2cc;strokeColor=#d6b656;" vertex="1" parent="1">
          <mxGeometry x="456" y="66" width="190" height="140" as="geometry" />
        </mxCell>
        <mxCell id="cek7nsQ2RfXW3LOatkp3-123" value="Application" style="swimlane;fontStyle=1;align=center;verticalAlign=top;childLayout=stackLayout;horizontal=1;startSize=26;horizontalStack=0;resizeParent=1;resizeParentMax=0;resizeLast=0;collapsible=1;marginBottom=0;whiteSpace=wrap;html=1;" vertex="1" parent="1">
          <mxGeometry x="1050" y="2200" width="160" height="80" as="geometry">
            <mxRectangle x="980" y="2110" width="100" height="30" as="alternateBounds" />
          </mxGeometry>
        </mxCell>
        <mxCell id="cek7nsQ2RfXW3LOatkp3-125" value="" style="line;strokeWidth=1;fillColor=none;align=left;verticalAlign=middle;spacingTop=-1;spacingLeft=3;spacingRight=3;rotatable=0;labelPosition=right;points=[];portConstraint=eastwest;strokeColor=inherit;" vertex="1" parent="cek7nsQ2RfXW3LOatkp3-123">
          <mxGeometry y="26" width="160" height="54" as="geometry" />
        </mxCell>
        <mxCell id="cek7nsQ2RfXW3LOatkp3-132" value="&lt;p style=&quot;margin:0px;margin-top:4px;text-align:center;&quot;&gt;&lt;i&gt;&amp;lt;&amp;lt;Interface&amp;gt;&amp;gt;&lt;/i&gt;&lt;br&gt;&lt;b&gt;Move&lt;/b&gt;&lt;/p&gt;&lt;hr size=&quot;1&quot; style=&quot;border-style:solid;&quot;&gt;&lt;p style=&quot;margin:0px;margin-left:4px;&quot;&gt;&lt;br&gt;&lt;/p&gt;&lt;hr size=&quot;1&quot; style=&quot;border-style:solid;&quot;&gt;&lt;p style=&quot;margin:0px;margin-left:4px;&quot;&gt;+ execute(int, Token): String&lt;/p&gt;" style="verticalAlign=top;align=left;overflow=fill;html=1;whiteSpace=wrap;" vertex="1" parent="1">
          <mxGeometry x="40" y="1850" width="190" height="100" as="geometry" />
        </mxCell>
        <mxCell id="cek7nsQ2RfXW3LOatkp3-133" value="&lt;p style=&quot;margin: 4px 0px 0px; text-align: center;&quot;&gt;&lt;i&gt;&amp;lt;&amp;lt;Interface&amp;gt;&amp;gt;&lt;/i&gt;&lt;br&gt;&lt;/p&gt;&lt;p style=&quot;margin: 4px 0px 0px; text-align: center;&quot;&gt;&lt;b&gt;Path&lt;/b&gt;&lt;/p&gt;&lt;hr size=&quot;1&quot; style=&quot;border-style:solid;&quot;&gt;&lt;p style=&quot;margin: 4px 0px 0px; text-align: center;&quot;&gt;&lt;br&gt;&lt;/p&gt;&lt;hr style=&quot;border-style: solid;&quot; size=&quot;1&quot;&gt;&lt;p style=&quot;margin: 0px 0px 0px 4px;&quot;&gt;+ setPosition(int): void&lt;br&gt;&lt;/p&gt;&lt;p style=&quot;margin: 0px 0px 0px 4px;&quot;&gt;+ getPosition(): int&lt;/p&gt;&lt;p style=&quot;margin: 0px 0px 0px 4px;&quot;&gt;+ getAnimal(): Animal&lt;/p&gt;&lt;p style=&quot;margin: 0px 0px 0px 4px;&quot;&gt;+ addToken(Token): void&lt;/p&gt;&lt;p style=&quot;margin: 0px 0px 0px 4px;&quot;&gt;+ removeToken(): void&lt;/p&gt;&lt;p style=&quot;margin: 0px 0px 0px 4px;&quot;&gt;+ isOccupied(): boolean&lt;/p&gt;" style="verticalAlign=top;align=left;overflow=fill;html=1;whiteSpace=wrap;" vertex="1" parent="1">
          <mxGeometry x="1063" y="480" width="190" height="168" as="geometry" />
        </mxCell>
        <mxCell id="_7vnViB7zh0cK9tllDgY-1" value="MoveNearestCaveAction" style="swimlane;fontStyle=1;align=center;verticalAlign=top;childLayout=stackLayout;horizontal=1;startSize=26;horizontalStack=0;resizeParent=1;resizeParentMax=0;resizeLast=0;collapsible=1;marginBottom=0;whiteSpace=wrap;html=1;fillColor=#d5e8d4;strokeColor=#82b366;" vertex="1" parent="1">
          <mxGeometry x="330" y="2080" width="160" height="128" as="geometry" />
        </mxCell>
        <mxCell id="_7vnViB7zh0cK9tllDgY-2" value="- paths: ArrayList&amp;lt;Path&amp;gt;&lt;div&gt;- caveIndices: int[ ]&lt;/div&gt;" style="text;align=left;verticalAlign=top;spacingLeft=4;spacingRight=4;overflow=hidden;rotatable=0;points=[[0,0.5],[1,0.5]];portConstraint=eastwest;whiteSpace=wrap;html=1;fillColor=#d5e8d4;strokeColor=#82b366;" vertex="1" parent="_7vnViB7zh0cK9tllDgY-1">
          <mxGeometry y="26" width="160" height="44" as="geometry" />
        </mxCell>
        <mxCell id="_7vnViB7zh0cK9tllDgY-3" value="+ execute(int, Token): String&lt;div&gt;+ setPathIncludingCave: ArrayList&amp;lt;Path&amp;gt;&lt;/div&gt;" style="text;align=left;verticalAlign=top;spacingLeft=4;spacingRight=4;overflow=hidden;rotatable=0;points=[[0,0.5],[1,0.5]];portConstraint=eastwest;whiteSpace=wrap;html=1;fillColor=#d5e8d4;strokeColor=#82b366;" vertex="1" parent="_7vnViB7zh0cK9tllDgY-1">
          <mxGeometry y="70" width="160" height="58" as="geometry" />
        </mxCell>
        <mxCell id="_7vnViB7zh0cK9tllDgY-6" value="" style="endArrow=none;dashed=1;html=1;rounded=0;entryX=0;entryY=0.5;entryDx=0;entryDy=0;" edge="1" parent="1" target="_7vnViB7zh0cK9tllDgY-2">
          <mxGeometry width="50" height="50" relative="1" as="geometry">
            <mxPoint x="260" y="2020" as="sourcePoint" />
            <mxPoint x="340" y="2010" as="targetPoint" />
            <Array as="points">
              <mxPoint x="260" y="2128" />
            </Array>
          </mxGeometry>
        </mxCell>
        <mxCell id="_7vnViB7zh0cK9tllDgY-7" style="edgeStyle=orthogonalEdgeStyle;rounded=0;orthogonalLoop=1;jettySize=auto;html=1;exitX=0;exitY=0.5;exitDx=0;exitDy=0;dashed=1;endArrow=open;endFill=0;entryX=1;entryY=0.5;entryDx=0;entryDy=0;" edge="1" parent="1" target="_7vnViB7zh0cK9tllDgY-2">
          <mxGeometry relative="1" as="geometry">
            <mxPoint x="629.9699999999998" y="1820" as="sourcePoint" />
            <Array as="points">
              <mxPoint x="630" y="1846" />
              <mxPoint x="610" y="1846" />
              <mxPoint x="610" y="2036" />
              <mxPoint x="560" y="2036" />
              <mxPoint x="560" y="2128" />
            </Array>
            <mxPoint x="560" y="2200" as="targetPoint" />
          </mxGeometry>
        </mxCell>
        <mxCell id="_7vnViB7zh0cK9tllDgY-8" value="&amp;lt;&amp;lt;creates&amp;gt;&amp;gt;" style="edgeLabel;html=1;align=center;verticalAlign=middle;resizable=0;points=[];" connectable="0" vertex="1" parent="_7vnViB7zh0cK9tllDgY-7">
          <mxGeometry x="-0.0053" y="-1" relative="1" as="geometry">
            <mxPoint x="-56" y="47" as="offset" />
          </mxGeometry>
        </mxCell>
        <mxCell id="cek7nsQ2RfXW3LOatkp3-49" style="edgeStyle=orthogonalEdgeStyle;rounded=0;orthogonalLoop=1;jettySize=auto;html=1;dashed=1;endArrow=open;endFill=0;entryX=-0.004;entryY=0.429;entryDx=0;entryDy=0;exitX=0.5;exitY=0;exitDx=0;exitDy=0;entryPerimeter=0;" edge="1" parent="1" source="cek7nsQ2RfXW3LOatkp3-123">
          <mxGeometry relative="1" as="geometry">
            <mxPoint x="1130" y="2185" as="sourcePoint" />
            <Array as="points">
              <mxPoint x="1130" y="2172" />
            </Array>
            <mxPoint x="1218.28" y="2171.5860000000002" as="targetPoint" />
          </mxGeometry>
        </mxCell>
        <mxCell id="cek7nsQ2RfXW3LOatkp3-73" value="&amp;lt;&amp;lt;creates&amp;gt;&amp;gt;" style="edgeLabel;html=1;align=center;verticalAlign=middle;resizable=0;points=[];" connectable="0" vertex="1" parent="cek7nsQ2RfXW3LOatkp3-49">
          <mxGeometry x="-0.0646" y="3" relative="1" as="geometry">
            <mxPoint x="-26" y="17" as="offset" />
          </mxGeometry>
        </mxCell>
        <mxCell id="_7vnViB7zh0cK9tllDgY-9" value="&lt;p style=&quot;margin:0px;margin-top:4px;text-align:center;&quot;&gt;&lt;i&gt;&amp;lt;&amp;lt;Interface&amp;gt;&amp;gt;&lt;/i&gt;&lt;br&gt;&lt;b&gt;Flip&lt;/b&gt;&lt;/p&gt;&lt;hr size=&quot;1&quot; style=&quot;border-style:solid;&quot;&gt;&lt;p style=&quot;margin:0px;margin-left:4px;&quot;&gt;&lt;br&gt;&lt;/p&gt;&lt;hr size=&quot;1&quot; style=&quot;border-style:solid;&quot;&gt;&lt;p style=&quot;margin:0px;margin-left:4px;&quot;&gt;+ flip(game): void&lt;/p&gt;" style="verticalAlign=top;align=left;overflow=fill;html=1;whiteSpace=wrap;fillColor=#d5e8d4;strokeColor=#82b366;" vertex="1" parent="1">
          <mxGeometry x="90" y="1625" width="190" height="100" as="geometry" />
        </mxCell>
        <mxCell id="_7vnViB7zh0cK9tllDgY-10" value="FlipPirateDragon" style="swimlane;fontStyle=1;align=center;verticalAlign=top;childLayout=stackLayout;horizontal=1;startSize=26;horizontalStack=0;resizeParent=1;resizeParentMax=0;resizeLast=0;collapsible=1;marginBottom=0;whiteSpace=wrap;html=1;fillColor=#d5e8d4;strokeColor=#82b366;" vertex="1" parent="1">
          <mxGeometry x="380" y="1678" width="160" height="78" as="geometry">
            <mxRectangle x="330" y="1770" width="160" height="30" as="alternateBounds" />
          </mxGeometry>
        </mxCell>
        <mxCell id="_7vnViB7zh0cK9tllDgY-11" value="" style="text;align=left;verticalAlign=top;spacingLeft=4;spacingRight=4;overflow=hidden;rotatable=0;points=[[0,0.5],[1,0.5]];portConstraint=eastwest;whiteSpace=wrap;html=1;fillColor=#d5e8d4;strokeColor=#82b366;" vertex="1" parent="_7vnViB7zh0cK9tllDgY-10">
          <mxGeometry y="26" width="160" height="26" as="geometry" />
        </mxCell>
        <mxCell id="_7vnViB7zh0cK9tllDgY-12" value="+ flip(game): void" style="text;align=left;verticalAlign=top;spacingLeft=4;spacingRight=4;overflow=hidden;rotatable=0;points=[[0,0.5],[1,0.5]];portConstraint=eastwest;whiteSpace=wrap;html=1;fillColor=#d5e8d4;strokeColor=#82b366;" vertex="1" parent="_7vnViB7zh0cK9tllDgY-10">
          <mxGeometry y="52" width="160" height="26" as="geometry" />
        </mxCell>
        <mxCell id="_7vnViB7zh0cK9tllDgY-13" value="FlipNewDragon" style="swimlane;fontStyle=1;align=center;verticalAlign=top;childLayout=stackLayout;horizontal=1;startSize=26;horizontalStack=0;resizeParent=1;resizeParentMax=0;resizeLast=0;collapsible=1;marginBottom=0;whiteSpace=wrap;html=1;fillColor=#d5e8d4;strokeColor=#82b366;" vertex="1" parent="1">
          <mxGeometry x="380" y="1595" width="160" height="78" as="geometry">
            <mxRectangle x="330" y="1770" width="160" height="30" as="alternateBounds" />
          </mxGeometry>
        </mxCell>
        <mxCell id="_7vnViB7zh0cK9tllDgY-14" value="" style="text;align=left;verticalAlign=top;spacingLeft=4;spacingRight=4;overflow=hidden;rotatable=0;points=[[0,0.5],[1,0.5]];portConstraint=eastwest;whiteSpace=wrap;html=1;fillColor=#d5e8d4;strokeColor=#82b366;" vertex="1" parent="_7vnViB7zh0cK9tllDgY-13">
          <mxGeometry y="26" width="160" height="26" as="geometry" />
        </mxCell>
        <mxCell id="_7vnViB7zh0cK9tllDgY-15" value="+ flip(game): void" style="text;align=left;verticalAlign=top;spacingLeft=4;spacingRight=4;overflow=hidden;rotatable=0;points=[[0,0.5],[1,0.5]];portConstraint=eastwest;whiteSpace=wrap;html=1;fillColor=#d5e8d4;strokeColor=#82b366;" vertex="1" parent="_7vnViB7zh0cK9tllDgY-13">
          <mxGeometry y="52" width="160" height="26" as="geometry" />
        </mxCell>
        <mxCell id="_7vnViB7zh0cK9tllDgY-16" style="edgeStyle=orthogonalEdgeStyle;rounded=0;orthogonalLoop=1;jettySize=auto;html=1;entryX=0.999;entryY=0.77;entryDx=0;entryDy=0;dashed=1;endArrow=open;endFill=0;entryPerimeter=0;" edge="1" parent="1">
          <mxGeometry relative="1" as="geometry">
            <Array as="points">
              <mxPoint x="520" y="1806" />
              <mxPoint x="520" y="1826" />
            </Array>
            <mxPoint x="640" y="1806" as="sourcePoint" />
            <mxPoint x="500" y="1826" as="targetPoint" />
          </mxGeometry>
        </mxCell>
        <mxCell id="_7vnViB7zh0cK9tllDgY-17" value="&amp;lt;&amp;lt;creates&amp;gt;&amp;gt;" style="edgeLabel;html=1;align=center;verticalAlign=middle;resizable=0;points=[];" connectable="0" vertex="1" parent="_7vnViB7zh0cK9tllDgY-16">
          <mxGeometry x="0.0531" y="-1" relative="1" as="geometry">
            <mxPoint x="14" y="1" as="offset" />
          </mxGeometry>
        </mxCell>
        <mxCell id="_7vnViB7zh0cK9tllDgY-23" style="edgeStyle=orthogonalEdgeStyle;rounded=0;orthogonalLoop=1;jettySize=auto;html=1;entryX=0.997;entryY=0.202;entryDx=0;entryDy=0;dashed=1;endArrow=open;endFill=0;entryPerimeter=0;" edge="1" parent="1">
          <mxGeometry relative="1" as="geometry">
            <Array as="points">
              <mxPoint x="539" y="1649.1200000000001" />
            </Array>
            <mxPoint x="630" y="1648.88" as="sourcePoint" />
            <mxPoint x="539.52" y="1648.8760000000002" as="targetPoint" />
          </mxGeometry>
        </mxCell>
        <mxCell id="_7vnViB7zh0cK9tllDgY-24" value="&amp;lt;&amp;lt;creates&amp;gt;&amp;gt;" style="edgeLabel;html=1;align=center;verticalAlign=middle;resizable=0;points=[];" connectable="0" vertex="1" parent="_7vnViB7zh0cK9tllDgY-23">
          <mxGeometry x="0.0531" y="-1" relative="1" as="geometry">
            <mxPoint x="3" y="1" as="offset" />
          </mxGeometry>
        </mxCell>
        <mxCell id="_7vnViB7zh0cK9tllDgY-25" style="edgeStyle=orthogonalEdgeStyle;rounded=0;orthogonalLoop=1;jettySize=auto;html=1;entryX=0.997;entryY=0.202;entryDx=0;entryDy=0;dashed=1;endArrow=open;endFill=0;entryPerimeter=0;" edge="1" parent="1">
          <mxGeometry relative="1" as="geometry">
            <Array as="points">
              <mxPoint x="539" y="1700.24" />
            </Array>
            <mxPoint x="630" y="1700" as="sourcePoint" />
            <mxPoint x="539.52" y="1699.996" as="targetPoint" />
          </mxGeometry>
        </mxCell>
        <mxCell id="_7vnViB7zh0cK9tllDgY-26" value="&amp;lt;&amp;lt;creates&amp;gt;&amp;gt;" style="edgeLabel;html=1;align=center;verticalAlign=middle;resizable=0;points=[];" connectable="0" vertex="1" parent="_7vnViB7zh0cK9tllDgY-25">
          <mxGeometry x="0.0531" y="-1" relative="1" as="geometry">
            <mxPoint x="3" y="1" as="offset" />
          </mxGeometry>
        </mxCell>
        <mxCell id="_7vnViB7zh0cK9tllDgY-27" value="" style="endArrow=block;dashed=1;endFill=0;endSize=12;html=1;rounded=0;entryX=1;entryY=0.5;entryDx=0;entryDy=0;exitX=0;exitY=0.5;exitDx=0;exitDy=0;" edge="1" parent="1" source="_7vnViB7zh0cK9tllDgY-11" target="_7vnViB7zh0cK9tllDgY-9">
          <mxGeometry width="160" relative="1" as="geometry">
            <mxPoint x="210" y="1750" as="sourcePoint" />
            <mxPoint x="370" y="1750" as="targetPoint" />
            <Array as="points">
              <mxPoint x="330" y="1717" />
              <mxPoint x="330" y="1675" />
            </Array>
          </mxGeometry>
        </mxCell>
        <mxCell id="_7vnViB7zh0cK9tllDgY-28" value="" style="endArrow=none;dashed=1;html=1;rounded=0;exitX=0;exitY=0.5;exitDx=0;exitDy=0;" edge="1" parent="1" source="_7vnViB7zh0cK9tllDgY-14">
          <mxGeometry width="50" height="50" relative="1" as="geometry">
            <mxPoint x="250" y="1720" as="sourcePoint" />
            <mxPoint x="330" y="1680" as="targetPoint" />
            <Array as="points">
              <mxPoint x="330" y="1634" />
            </Array>
          </mxGeometry>
        </mxCell>
        <mxCell id="_7vnViB7zh0cK9tllDgY-29" value="&lt;span style=&quot;font-weight: 400;&quot;&gt;NewDragon&lt;/span&gt;" style="swimlane;fontStyle=1;align=center;verticalAlign=top;childLayout=stackLayout;horizontal=1;startSize=26;horizontalStack=0;resizeParent=1;resizeParentMax=0;resizeLast=0;collapsible=1;marginBottom=0;whiteSpace=wrap;html=1;fillColor=#d5e8d4;strokeColor=#82b366;" vertex="1" parent="1">
          <mxGeometry x="1080" y="332" width="150" height="132" as="geometry" />
        </mxCell>
        <mxCell id="_7vnViB7zh0cK9tllDgY-30" value="- name: String&lt;div&gt;- maxVal: int&lt;/div&gt;" style="text;align=left;verticalAlign=top;spacingLeft=4;spacingRight=4;overflow=hidden;rotatable=0;points=[[0,0.5],[1,0.5]];portConstraint=eastwest;whiteSpace=wrap;html=1;fillColor=#d5e8d4;strokeColor=#82b366;" vertex="1" parent="_7vnViB7zh0cK9tllDgY-29">
          <mxGeometry y="26" width="150" height="44" as="geometry" />
        </mxCell>
        <mxCell id="_7vnViB7zh0cK9tllDgY-32" value="&lt;p style=&quot;forced-color-adjust: none; color: rgb(0, 0, 0); font-family: Helvetica; font-size: 12px; font-style: normal; font-variant-ligatures: normal; font-variant-caps: normal; font-weight: 400; letter-spacing: normal; orphans: 2; text-align: left; text-indent: 0px; text-transform: none; widows: 2; word-spacing: 0px; -webkit-text-stroke-width: 0px; white-space: normal; background-color: rgb(251, 251, 251); text-decoration-thickness: initial; text-decoration-style: initial; text-decoration-color: initial; margin: 0px 0px 0px 4px;&quot;&gt;&lt;span style=&quot;forced-color-adjust: none; background-color: initial;&quot;&gt;+ getMaxVal(): int&lt;/span&gt;&lt;br style=&quot;forced-color-adjust: none;&quot;&gt;&lt;/p&gt;&lt;p style=&quot;forced-color-adjust: none; color: rgb(0, 0, 0); font-family: Helvetica; font-size: 12px; font-style: normal; font-variant-ligatures: normal; font-variant-caps: normal; font-weight: 400; letter-spacing: normal; orphans: 2; text-align: left; text-indent: 0px; text-transform: none; widows: 2; word-spacing: 0px; -webkit-text-stroke-width: 0px; white-space: normal; background-color: rgb(251, 251, 251); text-decoration-thickness: initial; text-decoration-style: initial; text-decoration-color: initial; margin: 0px 0px 0px 4px;&quot;&gt;+ getName(): String&lt;/p&gt;&lt;p style=&quot;forced-color-adjust: none; color: rgb(0, 0, 0); font-family: Helvetica; font-size: 12px; font-style: normal; font-variant-ligatures: normal; font-variant-caps: normal; font-weight: 400; letter-spacing: normal; orphans: 2; text-align: left; text-indent: 0px; text-transform: none; widows: 2; word-spacing: 0px; -webkit-text-stroke-width: 0px; white-space: normal; background-color: rgb(251, 251, 251); text-decoration-thickness: initial; text-decoration-style: initial; text-decoration-color: initial; margin: 0px 0px 0px 4px;&quot;&gt;+ isSpecial(): boolean&lt;br&gt;&lt;/p&gt;&lt;div&gt;&lt;br/&gt;&lt;/div&gt;" style="text;align=left;verticalAlign=top;spacingLeft=4;spacingRight=4;overflow=hidden;rotatable=0;points=[[0,0.5],[1,0.5]];portConstraint=eastwest;whiteSpace=wrap;html=1;fillColor=#d5e8d4;strokeColor=#82b366;" vertex="1" parent="_7vnViB7zh0cK9tllDgY-29">
          <mxGeometry y="70" width="150" height="62" as="geometry" />
        </mxCell>
        <mxCell id="_7vnViB7zh0cK9tllDgY-33" value="" style="endArrow=none;dashed=1;html=1;rounded=0;entryX=0.5;entryY=0;entryDx=0;entryDy=0;" edge="1" parent="1">
          <mxGeometry width="50" height="50" relative="1" as="geometry">
            <mxPoint x="960" y="292" as="sourcePoint" />
            <mxPoint x="1155" y="334" as="targetPoint" />
            <Array as="points">
              <mxPoint x="1155" y="292" />
            </Array>
          </mxGeometry>
        </mxCell>
        <mxCell id="tXU2eXru3xqG-AzJgK6u-1" value="LoadButton" style="swimlane;fontStyle=1;align=center;verticalAlign=top;childLayout=stackLayout;horizontal=1;startSize=26;horizontalStack=0;resizeParent=1;resizeParentMax=0;resizeLast=0;collapsible=1;marginBottom=0;whiteSpace=wrap;html=1;fillColor=#d5e8d4;strokeColor=#82b366;" vertex="1" parent="1">
          <mxGeometry x="1199" y="2058" width="220" height="78" as="geometry" />
        </mxCell>
        <mxCell id="tXU2eXru3xqG-AzJgK6u-2" value="" style="text;align=left;verticalAlign=top;spacingLeft=4;spacingRight=4;overflow=hidden;rotatable=0;points=[[0,0.5],[1,0.5]];portConstraint=eastwest;whiteSpace=wrap;html=1;fillColor=#d5e8d4;strokeColor=#82b366;" vertex="1" parent="tXU2eXru3xqG-AzJgK6u-1">
          <mxGeometry y="26" width="220" height="26" as="geometry" />
        </mxCell>
        <mxCell id="tXU2eXru3xqG-AzJgK6u-3" value="+ actionPerformed(ActionEvent): void" style="text;align=left;verticalAlign=top;spacingLeft=4;spacingRight=4;overflow=hidden;rotatable=0;points=[[0,0.5],[1,0.5]];portConstraint=eastwest;whiteSpace=wrap;html=1;fillColor=#d5e8d4;strokeColor=#82b366;" vertex="1" parent="tXU2eXru3xqG-AzJgK6u-1">
          <mxGeometry y="52" width="220" height="26" as="geometry" />
        </mxCell>
        <mxCell id="Runxgl-U8irZLzU3pReH-8" style="edgeStyle=orthogonalEdgeStyle;rounded=0;orthogonalLoop=1;jettySize=auto;html=1;dashed=1;endArrow=open;endFill=0;entryX=0.75;entryY=0;entryDx=0;entryDy=0;exitX=0.997;exitY=0.848;exitDx=0;exitDy=0;exitPerimeter=0;" edge="1" parent="tXU2eXru3xqG-AzJgK6u-1" target="Runxgl-U8irZLzU3pReH-2">
          <mxGeometry relative="1" as="geometry">
            <mxPoint x="-119" y="-10.029999999999973" as="sourcePoint" />
            <Array as="points">
              <mxPoint x="-119" y="-63" />
              <mxPoint x="-239" y="-63" />
              <mxPoint x="-239" y="132" />
              <mxPoint x="-242" y="132" />
            </Array>
            <mxPoint x="151" y="73.9699999999998" as="targetPoint" />
          </mxGeometry>
        </mxCell>
        <mxCell id="Runxgl-U8irZLzU3pReH-10" value="&lt;span style=&quot;color: rgba(0, 0, 0, 0); font-family: monospace; font-size: 0px; text-align: start; background-color: rgb(251, 251, 251);&quot;&gt;%3CmxGraphModel%3E%3Croot%3E%3CmxCell%20id%3D%220%22%2F%3E%3CmxCell%20id%3D%221%22%20parent%3D%220%22%2F%3E%3CmxCell%20id%3D%222%22%20value%3D%22%26amp%3Blt%3B%26amp%3Blt%3Bcreates%26amp%3Bgt%3B%26amp%3Bgt%3B%22%20style%3D%22edgeLabel%3Bhtml%3D1%3Balign%3Dcenter%3BverticalAlign%3Dmiddle%3Bresizable%3D0%3Bpoints%3D%5B%5D%3B%22%20connectable%3D%220%22%20vertex%3D%221%22%20parent%3D%221%22%3E%3CmxGeometry%20x%3D%221032.9034428095895%22%20y%3D%221940.034482758621%22%20as%3D%22geometry%22%2F%3E%3C%2FmxCell%3E%3C%2Froot%3E%3C%2FmxGraphModel%3E&lt;/span&gt;" style="edgeLabel;html=1;align=center;verticalAlign=middle;resizable=0;points=[];" connectable="0" vertex="1" parent="Runxgl-U8irZLzU3pReH-8">
          <mxGeometry x="0.0083" y="-1" relative="1" as="geometry">
            <mxPoint as="offset" />
          </mxGeometry>
        </mxCell>
        <mxCell id="Runxgl-U8irZLzU3pReH-11" value="&amp;lt;&amp;lt;creates&amp;gt;&amp;gt;" style="edgeLabel;html=1;align=center;verticalAlign=middle;resizable=0;points=[];" connectable="0" vertex="1" parent="Runxgl-U8irZLzU3pReH-8">
          <mxGeometry x="0.0263" y="-2" relative="1" as="geometry">
            <mxPoint as="offset" />
          </mxGeometry>
        </mxCell>
        <mxCell id="tXU2eXru3xqG-AzJgK6u-4" value="SaveButton" style="swimlane;fontStyle=1;align=center;verticalAlign=top;childLayout=stackLayout;horizontal=1;startSize=26;horizontalStack=0;resizeParent=1;resizeParentMax=0;resizeLast=0;collapsible=1;marginBottom=0;whiteSpace=wrap;html=1;fillColor=#d5e8d4;strokeColor=#82b366;" vertex="1" parent="1">
          <mxGeometry x="1200" y="1970" width="220" height="78" as="geometry" />
        </mxCell>
        <mxCell id="tXU2eXru3xqG-AzJgK6u-5" value="" style="text;align=left;verticalAlign=top;spacingLeft=4;spacingRight=4;overflow=hidden;rotatable=0;points=[[0,0.5],[1,0.5]];portConstraint=eastwest;whiteSpace=wrap;html=1;fillColor=#d5e8d4;strokeColor=#82b366;" vertex="1" parent="tXU2eXru3xqG-AzJgK6u-4">
          <mxGeometry y="26" width="220" height="26" as="geometry" />
        </mxCell>
        <mxCell id="tXU2eXru3xqG-AzJgK6u-6" value="+ actionPerformed(ActionEvent): void" style="text;align=left;verticalAlign=top;spacingLeft=4;spacingRight=4;overflow=hidden;rotatable=0;points=[[0,0.5],[1,0.5]];portConstraint=eastwest;whiteSpace=wrap;html=1;fillColor=#d5e8d4;strokeColor=#82b366;" vertex="1" parent="tXU2eXru3xqG-AzJgK6u-4">
          <mxGeometry y="52" width="220" height="26" as="geometry" />
        </mxCell>
        <mxCell id="tXU2eXru3xqG-AzJgK6u-11" style="edgeStyle=orthogonalEdgeStyle;rounded=0;orthogonalLoop=1;jettySize=auto;html=1;exitX=0.997;exitY=0.201;exitDx=0;exitDy=0;entryX=1;entryY=0.25;entryDx=0;entryDy=0;dashed=1;endArrow=open;endFill=0;exitPerimeter=0;" edge="1" parent="1" source="pcp5GQLYtGhU9Is82J_Z-34" target="tXU2eXru3xqG-AzJgK6u-1">
          <mxGeometry relative="1" as="geometry">
            <mxPoint x="1409" y="2156" as="sourcePoint" />
            <mxPoint x="1430" y="1909" as="targetPoint" />
            <Array as="points">
              <mxPoint x="1440" y="2173" />
              <mxPoint x="1440" y="2078" />
              <mxPoint x="1419" y="2078" />
            </Array>
          </mxGeometry>
        </mxCell>
        <mxCell id="tXU2eXru3xqG-AzJgK6u-12" value="&amp;lt;&amp;lt;creates&amp;gt;&amp;gt;" style="edgeLabel;html=1;align=center;verticalAlign=middle;resizable=0;points=[];" connectable="0" vertex="1" parent="tXU2eXru3xqG-AzJgK6u-11">
          <mxGeometry x="0.406" y="1" relative="1" as="geometry">
            <mxPoint x="1" y="57" as="offset" />
          </mxGeometry>
        </mxCell>
        <mxCell id="tXU2eXru3xqG-AzJgK6u-13" style="edgeStyle=orthogonalEdgeStyle;rounded=0;orthogonalLoop=1;jettySize=auto;html=1;dashed=1;endArrow=open;endFill=0;entryX=0.003;entryY=0.215;entryDx=0;entryDy=0;entryPerimeter=0;exitX=0.997;exitY=0.848;exitDx=0;exitDy=0;exitPerimeter=0;" edge="1" parent="1" source="3YPCHv7cXx526DVpAFdT-9" target="tXU2eXru3xqG-AzJgK6u-4">
          <mxGeometry relative="1" as="geometry">
            <mxPoint x="916" y="1940" as="sourcePoint" />
            <Array as="points">
              <mxPoint x="1050" y="1895" />
              <mxPoint x="1050" y="1987" />
            </Array>
            <mxPoint x="1184" y="1987" as="targetPoint" />
          </mxGeometry>
        </mxCell>
        <mxCell id="tXU2eXru3xqG-AzJgK6u-14" value="&amp;lt;&amp;lt;creates&amp;gt;&amp;gt;" style="edgeLabel;html=1;align=center;verticalAlign=middle;resizable=0;points=[];" connectable="0" vertex="1" parent="tXU2eXru3xqG-AzJgK6u-13">
          <mxGeometry x="-0.6252" y="-1" relative="1" as="geometry">
            <mxPoint x="41" y="44" as="offset" />
          </mxGeometry>
        </mxCell>
        <mxCell id="tXU2eXru3xqG-AzJgK6u-35" value="SaveLoad" style="swimlane;fontStyle=1;align=center;verticalAlign=top;childLayout=stackLayout;horizontal=1;startSize=26;horizontalStack=0;resizeParent=1;resizeParentMax=0;resizeLast=0;collapsible=1;marginBottom=0;whiteSpace=wrap;html=1;fillColor=#d5e8d4;strokeColor=#82b366;" vertex="1" parent="1">
          <mxGeometry x="1010" y="2048" width="170" height="110" as="geometry" />
        </mxCell>
        <mxCell id="tXU2eXru3xqG-AzJgK6u-36" value="- game: Game" style="text;align=left;verticalAlign=top;spacingLeft=4;spacingRight=4;overflow=hidden;rotatable=0;points=[[0,0.5],[1,0.5]];portConstraint=eastwest;whiteSpace=wrap;html=1;fillColor=#d5e8d4;strokeColor=#82b366;" vertex="1" parent="tXU2eXru3xqG-AzJgK6u-35">
          <mxGeometry y="26" width="170" height="26" as="geometry" />
        </mxCell>
        <mxCell id="tXU2eXru3xqG-AzJgK6u-37" value="+ save(): void&lt;div&gt;+ load(): void&lt;/div&gt;&lt;div&gt;+ getGame(): Game&lt;/div&gt;" style="text;align=left;verticalAlign=top;spacingLeft=4;spacingRight=4;overflow=hidden;rotatable=0;points=[[0,0.5],[1,0.5]];portConstraint=eastwest;whiteSpace=wrap;html=1;fillColor=#d5e8d4;strokeColor=#82b366;" vertex="1" parent="tXU2eXru3xqG-AzJgK6u-35">
          <mxGeometry y="52" width="170" height="58" as="geometry" />
        </mxCell>
        <mxCell id="Runxgl-U8irZLzU3pReH-2" value="DataStorage" style="swimlane;fontStyle=1;align=center;verticalAlign=top;childLayout=stackLayout;horizontal=1;startSize=26;horizontalStack=0;resizeParent=1;resizeParentMax=0;resizeLast=0;collapsible=1;marginBottom=0;whiteSpace=wrap;html=1;fillColor=#d5e8d4;strokeColor=#82b366;" vertex="1" parent="1">
          <mxGeometry x="747" y="2208" width="280" height="100" as="geometry" />
        </mxCell>
        <mxCell id="Runxgl-U8irZLzU3pReH-3" value="+ playerList: ArrayList&amp;lt;String&amp;gt;&lt;div&gt;+ timeLimit: int&lt;/div&gt;&lt;div&gt;+ volcanoCardController: VolcanoCardController&lt;/div&gt;" style="text;align=left;verticalAlign=top;spacingLeft=4;spacingRight=4;overflow=hidden;rotatable=0;points=[[0,0.5],[1,0.5]];portConstraint=eastwest;whiteSpace=wrap;html=1;fillColor=#d5e8d4;strokeColor=#82b366;" vertex="1" parent="Runxgl-U8irZLzU3pReH-2">
          <mxGeometry y="26" width="280" height="74" as="geometry" />
        </mxCell>
        <mxCell id="Runxgl-U8irZLzU3pReH-6" value="1" style="text;html=1;align=center;verticalAlign=middle;whiteSpace=wrap;rounded=0;strokeColor=none;" vertex="1" parent="1">
          <mxGeometry x="960" y="2080" width="60" height="30" as="geometry" />
        </mxCell>
        <mxCell id="Runxgl-U8irZLzU3pReH-7" value="1" style="text;html=1;align=center;verticalAlign=middle;whiteSpace=wrap;rounded=0;strokeColor=none;" vertex="1" parent="1">
          <mxGeometry x="890" y="1926" width="60" height="30" as="geometry" />
        </mxCell>
        <mxCell id="Runxgl-U8irZLzU3pReH-5" style="edgeStyle=orthogonalEdgeStyle;rounded=0;orthogonalLoop=1;jettySize=auto;html=1;entryX=-0.004;entryY=0.124;entryDx=0;entryDy=0;entryPerimeter=0;strokeColor=#000000;exitX=0.837;exitY=1.014;exitDx=0;exitDy=0;exitPerimeter=0;" edge="1" parent="1" source="3YPCHv7cXx526DVpAFdT-9" target="tXU2eXru3xqG-AzJgK6u-37">
          <mxGeometry relative="1" as="geometry">
            <Array as="points">
              <mxPoint x="899" y="1928" />
              <mxPoint x="899" y="2112" />
              <mxPoint x="980" y="2112" />
              <mxPoint x="980" y="2107" />
            </Array>
            <mxPoint x="850" y="2112" as="sourcePoint" />
            <mxPoint x="1374" y="2012" as="targetPoint" />
          </mxGeometry>
        </mxCell>
      </root>
    </mxGraphModel>
  </diagram>
</mxfile>
